<svg xmlns="http://www.w3.org/2000/svg" xmlns:v="https://svgstorm.com"
viewBox = "0 0 1600 1600"
width="1600"
height="1600">
<g fill="None" fill-opacity="0.0" stroke="#000000" stroke-opacity="0.00" stroke-width="0.3"><path d="
M 0.00 1600.00 
L 1600.00 1600.00
L 1600.00 0.00
L 0.00 0.00
L 0.00 1600.00
M 848.00 282.00 
C 848.91 292.25 847.61 302.70 848.00 313.00 C 848.38 323.30 847.88 333.68 848.00 344.00 C 848.12 354.32 848.07 364.67 848.00 375.00 C 847.93 385.33 848.29 396.77 848.00 407.00 C 847.71 417.23 848.74 428.09 848.00 438.00 C 847.26 447.91 849.67 459.68 848.00 469.00 C 846.33 478.32 852.05 492.64 847.00 500.00
C 842.42 506.67 830.24 508.00 823.75 513.75 C 817.27 519.51 807.13 521.81 800.10 527.10 C 793.07 532.39 783.28 536.29 775.78 540.78 C 768.28 545.27 760.63 550.45 752.77 554.77 C 744.91 559.09 737.19 563.39 729.25 568.25 C 721.31 573.11 712.62 577.22 705.10 582.10 C 697.58 586.98 689.12 590.85 681.32 595.32 C 673.52 599.79 666.20 604.86 658.30 609.30 C 650.41 613.74 641.90 617.99 634.25 623.25 C 626.60 628.51 617.84 631.16 610.31 636.31 C 602.77 641.45 594.53 645.03 586.97 649.97 C 579.41 654.92 569.77 658.86 563.00 664.00
C 557.75 672.06 563.64 685.20 562.00 695.00 C 560.36 704.80 562.74 717.54 562.00 728.00 C 561.26 738.46 562.33 750.26 562.00 761.00 C 561.67 771.74 562.15 783.14 562.00 794.00 C 561.85 804.86 562.07 816.11 562.00 827.00 C 561.93 837.89 562.03 849.15 562.00 860.00 C 561.97 870.85 562.00 881.20 562.00 892.00
C 570.94 890.05 578.86 883.40 587.69 878.70 C 596.53 873.99 604.97 868.84 613.74 863.74 C 622.52 858.65 630.72 854.18 639.22 849.22 C 647.73 844.26 656.45 838.98 665.22 834.22 C 673.99 829.46 681.34 838.28 690.25 842.75 C 699.15 847.23 707.69 853.00 716.00 858.00
C 714.65 853.99 718.11 845.45 717.00 840.00 C 715.89 834.55 717.19 826.69 717.00 821.00 C 716.81 815.31 715.60 807.14 719.00 803.00
C 724.47 795.15 738.10 793.45 746.08 787.08 C 754.06 780.71 765.09 776.94 773.75 770.75 C 782.40 764.55 793.24 760.95 802.03 755.03 C 810.81 749.10 820.70 744.60 829.74 738.74 C 838.79 732.89 848.55 729.17 857.70 722.70 C 866.84 716.23 876.12 711.32 886.08 718.92 C 896.04 726.52 903.44 728.39 914.00 735.00
C 911.74 729.76 914.07 718.81 914.00 713.00 C 913.93 707.19 911.92 696.36 914.00 691.00
C 916.90 683.51 931.06 682.23 936.70 676.70 C 942.34 671.17 953.37 668.60 960.25 663.25 C 967.12 657.89 976.44 654.78 984.03 650.03 C 991.61 645.27 999.06 640.90 1007.08 636.08 C 1015.11 631.26 1022.76 627.83 1030.30 622.30 C 1037.83 616.76 1046.67 615.87 1054.22 609.22 C 1061.78 602.57 1070.75 605.82 1078.25 611.75 C 1085.74 617.69 1094.15 620.09 1102.03 624.97 C 1109.90 629.86 1117.39 634.67 1124.90 639.10 C 1132.41 643.53 1141.12 647.55 1148.70 652.30 C 1156.27 657.06 1164.34 661.35 1172.22 665.78 C 1180.11 670.20 1187.50 675.22 1195.25 679.75 C 1202.99 684.29 1211.32 687.99 1219.08 692.92 C 1226.83 697.86 1234.74 701.71 1242.69 706.31 C 1250.65 710.90 1257.95 715.65 1266.03 719.97 C 1274.10 724.30 1281.47 729.64 1289.23 733.77 C 1296.99 737.90 1305.01 742.76 1312.75 747.25 C 1320.48 751.75 1328.48 755.98 1336.23 760.77 C 1343.98 765.56 1352.20 769.44 1359.70 774.31 C 1367.19 779.17 1376.18 782.93 1383.08 787.92 C 1389.98 792.91 1400.66 795.83 1406.70 801.31 C 1412.74 806.78 1427.19 808.75 1430.00 816.00
C 1433.49 825.00 1428.43 837.25 1430.00 847.00 C 1431.57 856.75 1429.29 867.89 1430.00 878.00 C 1430.71 888.11 1429.69 898.67 1430.00 909.00 C 1430.31 919.32 1429.85 930.60 1430.00 941.00 C 1430.15 951.40 1429.93 961.58 1430.00 972.00 C 1430.07 982.42 1429.97 992.52 1430.00 1003.00 C 1430.03 1013.48 1429.98 1024.47 1430.00 1035.00
C 1409.40 1043.96 1392.05 1057.28 1372.00 1067.00
C 1354.14 1068.62 1332.72 1067.54 1315.00 1067.00 C 1297.28 1066.46 1275.46 1070.99 1260.00 1065.00
C 1253.33 1063.42 1248.36 1058.27 1242.00 1056.00
C 1241.98 1065.25 1242.56 1074.78 1242.00 1084.00 C 1241.44 1093.22 1243.40 1103.98 1242.00 1113.00 C 1240.60 1122.02 1245.17 1133.62 1242.00 1142.00
C 1240.10 1147.02 1227.80 1149.93 1222.92 1153.92 C 1218.04 1157.91 1208.71 1161.79 1202.97 1164.97 C 1197.23 1168.15 1189.57 1175.03 1183.00 1176.00
C 1165.51 1177.59 1146.57 1176.65 1129.00 1176.00 C 1111.43 1175.35 1091.25 1179.21 1074.00 1176.00
C 1064.18 1174.17 1056.74 1164.48 1047.30 1160.70 C 1037.87 1156.91 1029.85 1149.81 1020.75 1145.25 C 1011.65 1140.68 1002.47 1134.61 993.92 1130.08 C 985.37 1125.55 976.05 1118.35 966.97 1115.03 C 957.89 1111.70 948.81 1098.88 939.00 1100.00
C 931.64 1100.84 924.83 1110.72 917.30 1112.30 C 909.78 1113.89 902.53 1124.87 895.00 1125.00
C 886.99 1125.14 879.73 1114.40 871.92 1112.08 C 864.11 1109.76 856.17 1101.14 848.00 1099.00
C 848.00 1113.22 846.80 1128.94 848.00 1143.00 C 849.20 1157.06 834.82 1158.86 825.30 1165.30 C 815.79 1171.75 806.79 1175.72 797.31 1181.31 C 787.82 1186.89 779.04 1192.67 769.25 1198.25 C 759.45 1203.83 750.76 1208.43 741.25 1214.25 C 731.75 1220.08 721.48 1224.90 712.32 1230.32 C 703.16 1235.74 694.33 1241.60 684.75 1246.75 C 675.18 1251.91 665.71 1258.20 656.25 1263.25 C 646.80 1268.31 637.26 1274.47 627.92 1279.92 C 618.57 1285.37 608.96 1289.95 599.78 1295.78 C 590.59 1301.60 580.29 1306.50 570.92 1311.92 C 561.56 1317.35 553.54 1322.87 543.75 1328.75 C 533.96 1334.63 524.41 1338.00 514.92 1344.92 C 505.43 1351.84 496.08 1352.91 486.78 1360.78 C 477.47 1368.64 466.98 1361.07 457.97 1355.03 C 448.95 1349.00 438.99 1344.81 429.78 1339.22 C 420.56 1333.64 410.86 1328.07 401.31 1322.70 C 391.75 1317.32 382.65 1311.55 373.00 1306.00
C 313.93 1272.02 254.51 1237.15 195.00 1204.00
C 195.00 1171.33 195.00 1138.67 195.00 1106.00
C 196.81 1101.81 205.54 1099.99 209.23 1097.23 C 212.92 1094.47 219.61 1090.68 224.07 1089.07 C 228.53 1087.47 233.82 1080.66 238.00 1080.00
C 231.26 1076.85 223.94 1072.42 217.77 1068.23 C 211.60 1064.04 202.09 1061.45 197.00 1056.00
C 189.99 1048.49 196.83 1031.78 195.00 1021.00 C 193.17 1010.22 195.80 995.75 195.00 984.00 C 194.20 972.25 195.37 958.15 195.00 946.00 C 194.63 933.85 195.16 921.35 195.00 909.00 C 194.84 896.65 195.07 883.43 195.00 871.00 C 194.93 858.57 195.02 846.47 195.00 834.00 C 194.98 821.53 195.00 808.48 195.00 796.00 C 195.00 783.52 194.96 771.48 195.00 759.00 C 195.04 746.52 194.91 733.46 195.00 721.00 C 195.09 708.54 194.79 696.42 195.00 684.00 C 195.21 671.58 194.55 658.32 195.00 646.00 C 195.45 633.68 193.97 621.07 195.00 609.00 C 196.03 596.93 192.32 582.91 196.00 572.00
C 197.69 562.19 207.53 554.22 211.11 545.11 C 214.69 536.00 222.71 527.06 226.92 517.92 C 231.13 508.78 237.76 500.42 242.25 491.25 C 246.75 482.09 253.42 473.45 258.25 464.25 C 263.07 455.05 268.70 446.72 273.75 437.75 C 278.80 428.79 284.09 419.09 289.25 410.25 C 294.42 401.42 298.37 391.32 308.23 387.23 C 318.09 383.14 325.84 375.76 335.25 371.25 C 344.66 366.73 352.41 361.09 361.75 355.75 C 371.09 350.42 380.12 346.01 389.23 340.23 C 398.34 334.45 407.03 330.60 416.08 325.08 C 425.13 319.56 434.06 314.23 443.22 309.22 C 452.38 304.22 460.60 298.86 469.74 293.74 C 478.89 288.63 488.03 283.21 497.08 278.08 C 506.14 272.95 514.53 267.70 523.75 262.75 C 532.96 257.79 541.47 251.90 550.75 246.75 C 560.03 241.60 568.11 236.76 577.25 231.25 C 586.39 225.74 595.63 221.56 604.70 215.70 C 613.77 209.84 622.37 206.66 631.10 200.10 C 639.82 193.53 650.03 192.77 659.01 185.01 C 667.99 177.25 677.53 181.30 686.25 187.75 C 694.97 194.21 705.08 197.52 713.75 203.25 C 722.41 208.99 731.54 213.49 740.25 218.75 C 748.95 224.02 758.53 229.02 767.25 234.75 C 775.96 240.49 786.23 243.54 794.08 249.92 C 801.93 256.30 814.84 258.65 821.70 265.31 C 828.55 271.96 845.08 273.92 848.00 282.00 Z"/>
</g>
<g fill="None" fill-opacity="0.0" stroke="#53AEF1" stroke-opacity="1.00" stroke-width="0.3"><path d="
M 196.00 572.00 
C 195.92 572.49 196.00 573.50 196.00 574.00
C 199.13 578.59 207.30 579.59 211.70 583.30 C 216.09 587.02 223.17 588.57 228.03 591.97 C 232.88 595.38 238.89 598.95 244.08 601.92 C 249.28 604.89 254.99 607.63 260.08 610.92 C 265.16 614.22 270.67 616.74 275.75 620.25 C 280.82 623.77 287.08 626.39 292.25 629.75 C 297.41 633.12 302.90 635.76 308.08 638.92 C 313.25 642.09 319.13 644.61 324.22 647.78 C 329.31 650.95 335.32 654.63 340.23 657.77 C 345.14 660.91 352.53 662.50 356.23 666.77 C 359.93 671.04 370.69 671.32 373.00 676.00
C 375.35 665.71 385.68 657.61 389.75 647.75 C 393.83 637.89 401.08 628.00 406.31 618.31 C 411.53 608.61 417.91 598.80 422.92 588.92 C 427.94 579.04 434.84 570.75 439.77 560.77 C 444.71 550.79 451.11 541.40 456.31 531.31 C 461.50 521.21 468.67 512.72 473.32 502.32 C 477.97 491.93 489.62 488.52 499.08 483.08 C 508.53 477.63 518.25 471.12 528.08 466.08 C 537.90 461.03 547.36 454.30 557.23 449.23 C 567.10 444.16 575.57 437.76 585.25 432.25 C 594.92 426.73 605.51 421.94 615.08 416.08 C 624.64 410.21 634.18 404.57 643.75 398.75 C 653.32 392.93 663.35 388.69 672.68 382.68 C 682.01 376.67 692.26 371.53 701.75 365.75 C 711.23 359.96 721.14 354.28 730.70 348.70 C 740.25 343.12 749.89 337.71 759.68 332.68 C 769.47 327.65 778.38 319.77 788.25 315.25 C 798.11 310.72 807.80 302.32 817.70 298.70 C 827.60 295.07 836.73 282.96 847.00 282.00
C 847.50 281.95 848.00 282.00 848.00 282.00
C 845.08 273.92 828.55 271.96 821.70 265.31 C 814.84 258.65 801.93 256.30 794.08 249.92 C 786.23 243.54 775.96 240.49 767.25 234.75 C 758.53 229.02 748.95 224.02 740.25 218.75 C 731.54 213.49 722.41 208.99 713.75 203.25 C 705.08 197.52 694.97 194.21 686.25 187.75 C 677.53 181.30 667.99 177.25 659.01 185.01 C 650.03 192.77 639.82 193.53 631.10 200.10 C 622.37 206.66 613.77 209.84 604.70 215.70 C 595.63 221.56 586.39 225.74 577.25 231.25 C 568.11 236.76 560.03 241.60 550.75 246.75 C 541.47 251.90 532.96 257.79 523.75 262.75 C 514.53 267.70 506.14 272.95 497.08 278.08 C 488.03 283.21 478.89 288.63 469.74 293.74 C 460.60 298.86 452.38 304.22 443.22 309.22 C 434.06 314.23 425.13 319.56 416.08 325.08 C 407.03 330.60 398.34 334.45 389.23 340.23 C 380.12 346.01 371.09 350.42 361.75 355.75 C 352.41 361.09 344.66 366.73 335.25 371.25 C 325.84 375.76 318.09 383.14 308.23 387.23 C 298.37 391.32 294.42 401.42 289.25 410.25 C 284.09 419.09 278.80 428.79 273.75 437.75 C 268.70 446.72 263.07 455.05 258.25 464.25 C 253.42 473.45 246.75 482.09 242.25 491.25 C 237.76 500.42 231.13 508.78 226.92 517.92 C 222.71 527.06 214.69 536.00 211.11 545.11 C 207.53 554.22 197.69 562.19 196.00 572.00 Z"/>
</g>
<g fill="None" fill-opacity="0.0" stroke="#1C57BB" stroke-opacity="1.00" stroke-width="0.3"><path d="
M 373.00 676.00 
C 369.15 692.83 374.73 711.67 373.00 729.00 C 371.27 746.33 373.77 764.38 373.00 782.00 C 372.23 799.62 373.35 818.26 373.00 836.00 C 372.65 853.74 373.16 871.21 373.00 889.00 C 372.84 906.79 373.07 925.18 373.00 943.00 C 372.93 960.82 373.03 978.16 373.00 996.00 C 372.97 1013.84 373.02 1032.15 373.00 1050.00 C 372.98 1067.85 373.01 1085.14 373.00 1103.00 C 372.99 1120.86 373.01 1139.10 373.00 1157.00
C 380.03 1157.05 386.34 1147.41 393.25 1145.25 C 400.15 1143.08 406.49 1136.71 413.25 1133.25 C 420.00 1129.78 428.09 1125.74 434.70 1121.70 C 441.30 1117.66 448.03 1113.81 454.75 1109.75 C 461.47 1105.69 468.97 1101.97 475.70 1097.70 C 482.42 1093.42 489.64 1090.73 496.23 1086.23 C 502.82 1081.73 510.33 1078.44 517.00 1074.00
C 523.42 1069.73 533.29 1066.07 539.22 1061.22 C 545.16 1056.38 557.38 1054.56 561.00 1048.00
C 564.27 1039.04 559.58 1027.69 561.00 1018.00 C 562.42 1008.31 560.37 997.04 561.00 987.00 C 561.63 976.96 560.72 966.20 561.00 956.00 C 561.28 945.80 560.90 935.26 561.00 925.00 C 561.10 914.74 561.00 904.28 561.00 894.00
C 561.00 882.98 560.98 872.03 561.00 861.00 C 561.02 849.97 560.95 839.05 561.00 828.00 C 561.05 816.95 560.89 804.99 561.00 794.00 C 561.11 783.01 560.76 771.81 561.00 761.00 C 561.24 750.19 560.48 737.40 561.00 727.00 C 561.52 716.60 559.82 703.42 561.00 694.00 C 562.18 684.58 557.52 668.16 563.00 664.00
C 569.77 658.86 579.41 654.92 586.97 649.97 C 594.53 645.03 602.77 641.45 610.31 636.31 C 617.84 631.16 626.60 628.51 634.25 623.25 C 641.90 617.99 650.41 613.74 658.30 609.30 C 666.20 604.86 673.52 599.79 681.32 595.32 C 689.12 590.85 697.58 586.98 705.10 582.10 C 712.62 577.22 721.31 573.11 729.25 568.25 C 737.19 563.39 744.91 559.09 752.77 554.77 C 760.63 550.45 768.28 545.27 775.78 540.78 C 783.28 536.29 793.07 532.39 800.10 527.10 C 807.13 521.81 817.27 519.51 823.75 513.75 C 830.24 508.00 842.42 506.67 847.00 500.00
C 848.28 463.78 845.30 427.18 847.00 391.00 C 848.70 354.82 843.74 318.04 847.00 282.00
C 836.73 282.96 827.60 295.07 817.70 298.70 C 807.80 302.32 798.11 310.72 788.25 315.25 C 778.38 319.77 769.47 327.65 759.68 332.68 C 749.89 337.71 740.25 343.12 730.70 348.70 C 721.14 354.28 711.23 359.96 701.75 365.75 C 692.26 371.53 682.01 376.67 672.68 382.68 C 663.35 388.69 653.32 392.93 643.75 398.75 C 634.18 404.57 624.64 410.21 615.08 416.08 C 605.51 421.94 594.92 426.73 585.25 432.25 C 575.57 437.76 567.10 444.16 557.23 449.23 C 547.36 454.30 537.90 461.03 528.08 466.08 C 518.25 471.12 508.53 477.63 499.08 483.08 C 489.62 488.52 477.97 491.93 473.32 502.32 C 468.67 512.72 461.50 521.21 456.31 531.31 C 451.11 541.40 444.71 550.79 439.77 560.77 C 434.84 570.75 427.94 579.04 422.92 588.92 C 417.91 598.80 411.53 608.61 406.31 618.31 C 401.08 628.00 393.83 637.89 389.75 647.75 C 385.68 657.61 375.35 665.71 373.00 676.00 Z"/>
</g>
<g fill="None" fill-opacity="0.0" stroke="#1A55BB" stroke-opacity="0.50" stroke-width="0.3"><path d="
M 847.00 500.00 
C 852.05 492.64 846.33 478.32 848.00 469.00 C 849.67 459.68 847.26 447.91 848.00 438.00 C 848.74 428.09 847.71 417.23 848.00 407.00 C 848.29 396.77 847.93 385.33 848.00 375.00 C 848.07 364.67 848.12 354.32 848.00 344.00 C 847.88 333.68 848.38 323.30 848.00 313.00 C 847.61 302.70 848.91 292.25 848.00 282.00
C 848.00 282.00 847.50 281.95 847.00 282.00
C 843.74 318.04 848.70 354.82 847.00 391.00 C 845.30 427.18 848.28 463.78 847.00 500.00 Z"/>
</g>
<g fill="None" fill-opacity="0.0" stroke="#278AEB" stroke-opacity="0.10" stroke-width="0.3"><path d="
M 197.00 1056.00 
C 191.41 1047.59 197.80 1033.28 196.00 1023.00 C 194.20 1012.72 196.84 998.94 196.00 988.00 C 195.16 977.06 196.37 965.26 196.00 954.00 C 195.63 942.74 196.17 930.39 196.00 919.00 C 195.83 907.61 196.07 896.46 196.00 885.00 C 195.93 873.54 196.03 861.48 196.00 850.00 C 195.97 838.52 196.01 827.50 196.00 816.00 C 195.99 804.50 196.01 792.50 196.00 781.00 C 195.99 769.50 196.00 758.51 196.00 747.00 C 196.00 735.49 196.00 723.51 196.00 712.00 C 196.00 700.49 196.00 689.51 196.00 678.00 C 196.00 666.49 196.00 654.52 196.00 643.00 C 196.00 631.48 196.00 620.54 196.00 609.00 C 196.00 597.46 196.00 585.57 196.00 574.00
C 196.00 573.50 195.92 572.49 196.00 572.00
C 192.32 582.91 196.03 596.93 195.00 609.00 C 193.97 621.07 195.45 633.68 195.00 646.00 C 194.55 658.32 195.21 671.58 195.00 684.00 C 194.79 696.42 195.09 708.54 195.00 721.00 C 194.91 733.46 195.04 746.52 195.00 759.00 C 194.96 771.48 195.00 783.52 195.00 796.00 C 195.00 808.48 194.98 821.53 195.00 834.00 C 195.02 846.47 194.93 858.57 195.00 871.00 C 195.07 883.43 194.84 896.65 195.00 909.00 C 195.16 921.35 194.63 933.85 195.00 946.00 C 195.37 958.15 194.20 972.25 195.00 984.00 C 195.80 995.75 193.17 1010.22 195.00 1021.00 C 196.83 1031.78 189.99 1048.49 197.00 1056.00 Z"/>
</g>
<g fill="None" fill-opacity="0.0" stroke="#248DE8" stroke-opacity="1.00" stroke-width="0.3"><path d="
M 197.00 1056.00 
C 202.09 1061.45 211.60 1064.04 217.77 1068.23 C 223.94 1072.42 231.26 1076.85 238.00 1080.00
C 245.79 1083.64 252.95 1088.24 260.25 1092.75 C 267.55 1097.27 275.80 1100.01 282.75 1105.25 C 289.70 1110.48 298.70 1113.63 306.08 1117.92 C 313.45 1122.22 320.22 1127.82 327.75 1131.25 C 335.27 1134.69 342.70 1141.12 350.23 1143.77 C 357.76 1146.42 365.14 1156.94 373.00 1157.00
C 373.01 1139.10 372.99 1120.86 373.00 1103.00 C 373.01 1085.14 372.98 1067.85 373.00 1050.00 C 373.02 1032.15 372.97 1013.84 373.00 996.00 C 373.03 978.16 372.93 960.82 373.00 943.00 C 373.07 925.18 372.84 906.79 373.00 889.00 C 373.16 871.21 372.65 853.74 373.00 836.00 C 373.35 818.26 372.23 799.62 373.00 782.00 C 373.77 764.38 371.27 746.33 373.00 729.00 C 374.73 711.67 369.15 692.83 373.00 676.00
C 370.69 671.32 359.93 671.04 356.23 666.77 C 352.53 662.50 345.14 660.91 340.23 657.77 C 335.32 654.63 329.31 650.95 324.22 647.78 C 319.13 644.61 313.25 642.09 308.08 638.92 C 302.90 635.76 297.41 633.12 292.25 629.75 C 287.08 626.39 280.82 623.77 275.75 620.25 C 270.67 616.74 265.16 614.22 260.08 610.92 C 254.99 607.63 249.28 604.89 244.08 601.92 C 238.89 598.95 232.88 595.38 228.03 591.97 C 223.17 588.57 216.09 587.02 211.70 583.30 C 207.30 579.59 199.13 578.59 196.00 574.00
C 196.00 585.57 196.00 597.46 196.00 609.00 C 196.00 620.54 196.00 631.48 196.00 643.00 C 196.00 654.52 196.00 666.49 196.00 678.00 C 196.00 689.51 196.00 700.49 196.00 712.00 C 196.00 723.51 196.00 735.49 196.00 747.00 C 196.00 758.51 195.99 769.50 196.00 781.00 C 196.01 792.50 195.99 804.50 196.00 816.00 C 196.01 827.50 195.97 838.52 196.00 850.00 C 196.03 861.48 195.93 873.54 196.00 885.00 C 196.07 896.46 195.83 907.61 196.00 919.00 C 196.17 930.39 195.63 942.74 196.00 954.00 C 196.37 965.26 195.16 977.06 196.00 988.00 C 196.84 998.94 194.20 1012.72 196.00 1023.00 C 197.80 1033.28 191.41 1047.59 197.00 1056.00 Z"/>
</g>
<g fill="None" fill-opacity="0.0" stroke="#53AEF1" stroke-opacity="0.99" stroke-width="0.3"><path d="
M 914.00 691.00 
C 924.17 696.72 934.41 701.74 944.22 707.78 C 954.03 713.81 964.43 719.62 974.25 725.75 C 984.06 731.88 994.84 736.84 1004.69 742.31 C 1014.55 747.77 1024.54 755.72 1034.70 760.31 C 1044.85 764.89 1054.59 773.89 1064.70 777.31 C 1074.80 780.72 1085.01 795.68 1095.00 791.00
C 1104.95 786.34 1116.48 775.35 1127.00 773.00
C 1136.53 770.87 1146.89 784.64 1156.70 788.31 C 1166.50 791.97 1176.89 800.04 1186.70 805.30 C 1196.51 810.56 1206.29 816.03 1216.23 822.77 C 1226.17 829.51 1236.60 832.37 1247.08 839.92 C 1257.55 847.48 1270.54 850.88 1285.00 849.00 C 1299.46 847.12 1317.30 850.62 1332.00 849.00 C 1346.70 847.38 1363.81 852.74 1377.00 846.00
C 1395.21 836.69 1411.83 825.24 1430.00 816.00
C 1427.19 808.75 1412.74 806.78 1406.70 801.31 C 1400.66 795.83 1389.98 792.91 1383.08 787.92 C 1376.18 782.93 1367.19 779.17 1359.70 774.31 C 1352.20 769.44 1343.98 765.56 1336.23 760.77 C 1328.48 755.98 1320.48 751.75 1312.75 747.25 C 1305.01 742.76 1296.99 737.90 1289.23 733.77 C 1281.47 729.64 1274.10 724.30 1266.03 719.97 C 1257.95 715.65 1250.65 710.90 1242.69 706.31 C 1234.74 701.71 1226.83 697.86 1219.08 692.92 C 1211.32 687.99 1202.99 684.29 1195.25 679.75 C 1187.50 675.22 1180.11 670.20 1172.22 665.78 C 1164.34 661.35 1156.27 657.06 1148.70 652.30 C 1141.12 647.55 1132.41 643.53 1124.90 639.10 C 1117.39 634.67 1109.90 629.86 1102.03 624.97 C 1094.15 620.09 1085.74 617.69 1078.25 611.75 C 1070.75 605.82 1061.78 602.57 1054.22 609.22 C 1046.67 615.87 1037.83 616.76 1030.30 622.30 C 1022.76 627.83 1015.11 631.26 1007.08 636.08 C 999.06 640.90 991.61 645.27 984.03 650.03 C 976.44 654.78 967.12 657.89 960.25 663.25 C 953.37 668.60 942.34 671.17 936.70 676.70 C 931.06 682.23 916.90 683.51 914.00 691.00 Z"/>
</g>
<g fill="None" fill-opacity="0.0" stroke="#1B57BB" stroke-opacity="0.69" stroke-width="0.3"><path d="
M 561.00 894.00 
C 561.00 893.96 562.00 894.00 562.00 894.00
C 562.00 893.50 562.00 893.00 562.00 893.00
C 562.00 881.20 561.97 870.85 562.00 860.00 C 562.03 849.15 561.93 837.89 562.00 827.00 C 562.07 816.11 561.85 804.86 562.00 794.00 C 562.15 783.14 561.67 771.74 562.00 761.00 C 562.33 750.26 561.26 738.46 562.00 728.00 C 562.74 717.54 560.36 704.80 562.00 695.00 C 563.64 685.20 557.75 672.06 563.00 664.00
C 557.52 668.16 562.18 684.58 561.00 694.00 C 559.82 703.42 561.52 716.60 561.00 727.00 C 560.48 737.40 561.24 750.19 561.00 761.00 C 560.76 771.81 561.11 783.01 561.00 794.00 C 560.89 804.99 561.05 816.95 561.00 828.00 C 560.95 839.05 561.02 849.97 561.00 861.00 C 560.98 872.03 561.00 882.98 561.00 894.00 Z"/>
</g>
<g fill="None" fill-opacity="0.0" stroke="#248EE8" stroke-opacity="1.00" stroke-width="0.3"><path d="
M 914.00 735.00 
C 971.78 771.14 1032.24 805.75 1092.00 838.00
C 1089.33 831.82 1092.84 819.63 1092.00 813.00 C 1091.16 806.37 1090.17 794.97 1095.00 791.00
C 1085.01 795.68 1074.80 780.72 1064.70 777.31 C 1054.59 773.89 1044.85 764.89 1034.70 760.31 C 1024.54 755.72 1014.55 747.77 1004.69 742.31 C 994.84 736.84 984.06 731.88 974.25 725.75 C 964.43 719.62 954.03 713.81 944.22 707.78 C 934.41 701.74 924.17 696.72 914.00 691.00
C 911.92 696.36 913.93 707.19 914.00 713.00 C 914.07 718.81 911.74 729.76 914.00 735.00 Z"/>
</g>
<g fill="None" fill-opacity="0.0" stroke="#53AEF1" stroke-opacity="1.00" stroke-width="0.3"><path d="
M 719.00 803.00 
C 718.58 803.60 718.15 804.28 718.00 805.00
C 718.82 808.39 729.33 810.38 732.23 813.77 C 735.13 817.16 743.11 818.63 747.23 821.77 C 751.35 824.91 757.90 827.36 762.25 830.75 C 766.59 834.15 772.55 835.60 777.23 838.77 C 781.91 841.94 787.21 844.88 792.08 847.92 C 796.94 850.97 801.97 853.20 807.03 855.97 C 812.09 858.74 816.15 862.17 821.69 864.31 C 827.24 866.45 830.04 872.08 836.23 873.77 C 842.42 875.47 844.25 879.96 851.08 881.92 C 857.90 883.89 857.46 889.52 866.23 890.77 C 875.00 892.02 887.46 908.33 896.00 906.00
C 903.68 903.90 910.44 895.94 918.03 894.03 C 925.62 892.11 932.12 881.14 940.00 881.00
C 947.87 880.86 955.25 891.82 963.03 893.97 C 970.81 896.12 978.09 903.61 985.70 907.30 C 993.31 910.99 1000.57 916.49 1008.25 920.75 C 1015.93 925.02 1023.71 929.13 1031.70 933.30 C 1039.68 937.48 1046.08 943.51 1054.70 947.30 C 1063.32 951.10 1069.39 958.36 1080.00 958.00 C 1090.61 957.64 1104.82 958.52 1116.00 958.00 C 1127.18 957.48 1140.79 959.04 1152.00 958.00 C 1163.21 956.96 1177.17 961.08 1187.00 956.00
C 1203.65 943.49 1224.58 936.15 1242.00 925.00
C 1240.08 920.56 1230.13 918.55 1225.77 915.23 C 1221.41 911.90 1213.25 909.33 1208.30 905.70 C 1203.36 902.06 1196.88 898.73 1191.32 895.68 C 1185.76 892.63 1179.49 889.38 1173.92 886.08 C 1168.36 882.77 1163.10 878.73 1157.31 875.70 C 1151.51 872.66 1145.52 869.54 1139.92 866.08 C 1134.33 862.61 1128.17 859.54 1123.00 856.00
C 1113.49 849.47 1102.05 843.42 1092.00 838.00
C 1032.24 805.75 971.78 771.14 914.00 735.00
C 903.44 728.39 896.04 726.52 886.08 718.92 C 876.12 711.32 866.84 716.23 857.70 722.70 C 848.55 729.17 838.79 732.89 829.74 738.74 C 820.70 744.60 810.81 749.10 802.03 755.03 C 793.24 760.95 782.40 764.55 773.75 770.75 C 765.09 776.94 754.06 780.71 746.08 787.08 C 738.10 793.45 724.47 795.15 719.00 803.00 Z"/>
</g>
<g fill="None" fill-opacity="0.0" stroke="#248EE8" stroke-opacity="1.00" stroke-width="0.3"><path d="
M 1127.00 773.00 
C 1131.14 775.42 1126.84 787.61 1128.00 793.00 C 1129.16 798.39 1127.44 808.68 1128.00 815.00 C 1128.56 821.32 1127.72 829.23 1128.00 836.00 C 1128.28 842.77 1127.79 851.09 1128.00 858.00
C 1126.11 858.06 1124.71 856.58 1123.00 856.00
C 1128.17 859.54 1134.33 862.61 1139.92 866.08 C 1145.52 869.54 1151.51 872.66 1157.31 875.70 C 1163.10 878.73 1168.36 882.77 1173.92 886.08 C 1179.49 889.38 1185.76 892.63 1191.32 895.68 C 1196.88 898.73 1203.36 902.06 1208.30 905.70 C 1213.25 909.33 1221.41 911.90 1225.77 915.23 C 1230.13 918.55 1240.08 920.56 1242.00 925.00
C 1245.15 932.30 1240.58 942.95 1242.00 951.00 C 1243.42 959.05 1241.36 968.61 1242.00 977.00 C 1242.64 985.39 1241.72 994.46 1242.00 1003.00 C 1242.28 1011.54 1241.89 1020.40 1242.00 1029.00 C 1242.11 1037.60 1241.98 1046.38 1242.00 1055.00
C 1242.00 1055.50 1242.00 1056.00 1242.00 1056.00
C 1248.36 1058.27 1253.33 1063.42 1260.00 1065.00
C 1277.66 1069.18 1296.62 1064.36 1315.00 1066.00 C 1333.38 1067.64 1353.51 1064.33 1372.00 1066.00
C 1372.00 993.66 1372.00 921.34 1372.00 849.00
C 1373.83 848.74 1376.30 847.98 1377.00 846.00
C 1363.81 852.74 1346.70 847.38 1332.00 849.00 C 1317.30 850.62 1299.46 847.12 1285.00 849.00 C 1270.54 850.88 1257.55 847.48 1247.08 839.92 C 1236.60 832.37 1226.17 829.51 1216.23 822.77 C 1206.29 816.03 1196.51 810.56 1186.70 805.30 C 1176.89 800.04 1166.50 791.97 1156.70 788.31 C 1146.89 784.64 1136.53 770.87 1127.00 773.00 Z"/>
</g>
<g fill="None" fill-opacity="0.0" stroke="#1C58BB" stroke-opacity="1.00" stroke-width="0.3"><path d="
M 1095.00 791.00 
C 1090.17 794.97 1091.16 806.37 1092.00 813.00 C 1092.84 819.63 1089.33 831.82 1092.00 838.00
C 1102.05 843.42 1113.49 849.47 1123.00 856.00
C 1124.71 856.58 1126.11 858.06 1128.00 858.00
C 1127.79 851.09 1128.28 842.77 1128.00 836.00 C 1127.72 829.23 1128.56 821.32 1128.00 815.00 C 1127.44 808.68 1129.16 798.39 1128.00 793.00 C 1126.84 787.61 1131.14 775.42 1127.00 773.00
C 1116.48 775.35 1104.95 786.34 1095.00 791.00 Z"/>
</g>
<g fill="None" fill-opacity="0.0" stroke="#268EE7" stroke-opacity="0.51" stroke-width="0.3"><path d="
M 716.00 858.00 
C 717.28 858.77 716.68 857.52 718.00 858.00
C 720.58 853.65 716.74 846.20 718.00 841.00 C 719.26 835.80 717.09 828.53 718.00 823.00 C 718.91 817.47 716.82 810.54 718.00 805.00
C 718.15 804.28 718.58 803.60 719.00 803.00
C 715.60 807.14 716.81 815.31 717.00 821.00 C 717.19 826.69 715.89 834.55 717.00 840.00 C 718.11 845.45 714.65 853.99 716.00 858.00 Z"/>
</g>
<g fill="None" fill-opacity="0.0" stroke="#248EE8" stroke-opacity="1.00" stroke-width="0.3"><path d="
M 718.00 858.00 
C 725.78 860.82 733.40 870.18 742.23 873.77 C 751.06 877.36 760.24 883.34 768.70 888.31 C 777.15 893.28 785.61 897.85 794.08 902.92 C 802.55 907.99 811.46 913.08 820.08 917.92 C 828.70 922.77 837.12 928.74 846.00 933.00
C 846.53 934.28 845.03 934.86 845.00 936.00
C 846.19 935.54 846.76 934.29 848.00 934.00
C 848.00 989.00 848.00 1044.00 848.00 1099.00
C 856.17 1101.14 864.11 1109.76 871.92 1112.08 C 879.73 1114.40 886.99 1125.14 895.00 1125.00
C 895.03 1114.64 894.96 1104.37 895.00 1094.00 C 895.04 1083.63 894.93 1073.41 895.00 1063.00 C 895.07 1052.59 894.85 1041.38 895.00 1031.00 C 895.16 1020.62 894.65 1010.27 895.00 1000.00 C 895.35 989.73 894.25 978.01 895.00 968.00 C 895.75 957.99 893.28 946.39 895.00 937.00 C 896.72 927.61 890.82 913.78 896.00 906.00
C 887.46 908.33 875.00 892.02 866.23 890.77 C 857.46 889.52 857.90 883.89 851.08 881.92 C 844.25 879.96 842.42 875.47 836.23 873.77 C 830.04 872.08 827.24 866.45 821.69 864.31 C 816.15 862.17 812.09 858.74 807.03 855.97 C 801.97 853.20 796.94 850.97 792.08 847.92 C 787.21 844.88 781.91 841.94 777.23 838.77 C 772.55 835.60 766.59 834.15 762.25 830.75 C 757.90 827.36 751.35 824.91 747.23 821.77 C 743.11 818.63 735.13 817.16 732.23 813.77 C 729.33 810.38 718.82 808.39 718.00 805.00
C 716.82 810.54 718.91 817.47 718.00 823.00 C 717.09 828.53 719.26 835.80 718.00 841.00 C 716.74 846.20 720.58 853.65 718.00 858.00 Z"/>
</g>
<g fill="None" fill-opacity="0.0" stroke="#1C57BC" stroke-opacity="1.00" stroke-width="0.3"><path d="
M 1377.00 846.00 
C 1376.30 847.98 1373.83 848.74 1372.00 849.00
C 1372.00 921.34 1372.00 993.66 1372.00 1066.00
C 1372.00 1066.50 1372.00 1067.00 1372.00 1067.00
C 1392.05 1057.28 1409.40 1043.96 1430.00 1035.00
C 1429.98 1024.47 1430.03 1013.48 1430.00 1003.00 C 1429.97 992.52 1430.07 982.42 1430.00 972.00 C 1429.93 961.58 1430.15 951.40 1430.00 941.00 C 1429.85 930.60 1430.31 919.32 1430.00 909.00 C 1429.69 898.67 1430.71 888.11 1430.00 878.00 C 1429.29 867.89 1431.57 856.75 1430.00 847.00 C 1428.43 837.25 1433.49 825.00 1430.00 816.00
C 1411.83 825.24 1395.21 836.69 1377.00 846.00 Z"/>
</g>
<g fill="None" fill-opacity="0.0" stroke="#53AEF1" stroke-opacity="1.00" stroke-width="0.3"><path d="
M 562.00 893.00 
C 562.00 893.00 562.00 893.50 562.00 894.00
C 562.00 906.62 562.31 919.40 562.00 932.00 C 561.69 944.60 562.79 958.56 562.00 971.00 C 561.21 983.44 563.81 998.10 562.00 1010.00 C 560.19 1021.90 566.49 1038.04 561.00 1048.00
C 557.38 1054.56 545.16 1056.38 539.22 1061.22 C 533.29 1066.07 523.42 1069.73 517.00 1074.00
C 523.98 1073.82 530.70 1083.39 537.25 1085.75 C 543.79 1088.12 551.56 1094.09 558.00 1097.00
C 568.63 1101.80 579.29 1086.81 589.75 1082.75 C 600.21 1078.69 611.32 1070.41 621.75 1064.75 C 632.17 1059.08 643.05 1052.35 653.68 1046.68 C 664.31 1041.01 674.38 1033.83 685.08 1028.08 C 695.78 1022.33 706.65 1015.25 717.25 1009.25 C 727.85 1003.24 738.63 997.38 749.23 991.23 C 759.82 985.08 770.11 978.83 780.70 972.70 C 791.29 966.56 801.87 960.36 812.70 954.70 C 823.52 949.04 833.52 940.49 845.00 936.00
C 845.03 934.86 846.53 934.28 846.00 933.00
C 837.12 928.74 828.70 922.77 820.08 917.92 C 811.46 913.08 802.55 907.99 794.08 902.92 C 785.61 897.85 777.15 893.28 768.70 888.31 C 760.24 883.34 751.06 877.36 742.23 873.77 C 733.40 870.18 725.78 860.82 718.00 858.00
C 716.68 857.52 717.28 858.77 716.00 858.00
C 707.69 853.00 699.15 847.23 690.25 842.75 C 681.34 838.28 673.99 829.46 665.22 834.22 C 656.45 838.98 647.73 844.26 639.22 849.22 C 630.72 854.18 622.52 858.65 613.74 863.74 C 604.97 868.84 596.53 873.99 587.69 878.70 C 578.86 883.40 570.94 890.05 562.00 893.00 Z"/>
</g>
<g fill="None" fill-opacity="0.0" stroke="#1C58BB" stroke-opacity="1.00" stroke-width="0.3"><path d="
M 896.00 906.00 
C 890.82 913.78 896.72 927.61 895.00 937.00 C 893.28 946.39 895.75 957.99 895.00 968.00 C 894.25 978.01 895.35 989.73 895.00 1000.00 C 894.65 1010.27 895.16 1020.62 895.00 1031.00 C 894.85 1041.38 895.07 1052.59 895.00 1063.00 C 894.93 1073.41 895.04 1083.63 895.00 1094.00 C 894.96 1104.37 895.03 1114.64 895.00 1125.00
C 902.53 1124.87 909.78 1113.89 917.30 1112.30 C 924.83 1110.72 931.64 1100.84 939.00 1100.00
C 944.28 1092.60 938.29 1079.20 940.00 1070.00 C 941.71 1060.80 939.25 1048.93 940.00 1039.00 C 940.75 1029.07 939.65 1017.24 940.00 1007.00 C 940.35 996.76 939.85 986.40 940.00 976.00 C 940.15 965.60 939.93 954.46 940.00 944.00 C 940.07 933.54 939.96 923.51 940.00 913.00 C 940.04 902.49 939.97 891.55 940.00 881.00
C 932.12 881.14 925.62 892.11 918.03 894.03 C 910.44 895.94 903.68 903.90 896.00 906.00 Z"/>
</g>
<g fill="None" fill-opacity="0.0" stroke="#248EE8" stroke-opacity="1.00" stroke-width="0.3"><path d="
M 939.00 1100.00 
C 948.81 1098.88 957.89 1111.70 966.97 1115.03 C 976.05 1118.35 985.37 1125.55 993.92 1130.08 C 1002.47 1134.61 1011.65 1140.68 1020.75 1145.25 C 1029.85 1149.81 1037.87 1156.91 1047.30 1160.70 C 1056.74 1164.48 1064.18 1174.17 1074.00 1176.00
C 1090.95 1177.54 1110.09 1173.27 1128.00 1175.00 C 1145.91 1176.73 1165.02 1173.38 1183.00 1175.00
C 1183.00 1160.40 1182.85 1145.58 1183.00 1131.00 C 1183.15 1116.42 1182.62 1100.39 1183.00 1086.00 C 1183.38 1071.61 1182.11 1055.88 1183.00 1042.00 C 1183.89 1028.12 1181.05 1009.79 1183.00 997.00 C 1184.95 984.21 1176.86 963.61 1187.00 956.00
C 1177.17 961.08 1163.21 956.96 1152.00 958.00 C 1140.79 959.04 1127.18 957.48 1116.00 958.00 C 1104.82 958.52 1090.61 957.64 1080.00 958.00 C 1069.39 958.36 1063.32 951.10 1054.70 947.30 C 1046.08 943.51 1039.68 937.48 1031.70 933.30 C 1023.71 929.13 1015.93 925.02 1008.25 920.75 C 1000.57 916.49 993.31 910.99 985.70 907.30 C 978.09 903.61 970.81 896.12 963.03 893.97 C 955.25 891.82 947.87 880.86 940.00 881.00
C 939.97 891.55 940.04 902.49 940.00 913.00 C 939.96 923.51 940.07 933.54 940.00 944.00 C 939.93 954.46 940.15 965.60 940.00 976.00 C 939.85 986.40 940.35 996.76 940.00 1007.00 C 939.65 1017.24 940.75 1029.07 940.00 1039.00 C 939.25 1048.93 941.71 1060.80 940.00 1070.00 C 938.29 1079.20 944.28 1092.60 939.00 1100.00 Z"/>
</g>
<g fill="None" fill-opacity="0.0" stroke="#2C71CC" stroke-opacity="1.00" stroke-width="0.3"><path d="
M 561.00 1048.00 
C 566.49 1038.04 560.19 1021.90 562.00 1010.00 C 563.81 998.10 561.21 983.44 562.00 971.00 C 562.79 958.56 561.69 944.60 562.00 932.00 C 562.31 919.40 562.00 906.62 562.00 894.00
C 562.00 894.00 561.00 893.96 561.00 894.00
C 561.00 904.28 561.10 914.74 561.00 925.00 C 560.90 935.26 561.28 945.80 561.00 956.00 C 560.72 966.20 561.63 976.96 561.00 987.00 C 560.37 997.04 562.42 1008.31 561.00 1018.00 C 559.58 1027.69 564.27 1039.04 561.00 1048.00 Z"/>
</g>
<g fill="None" fill-opacity="0.0" stroke="#1C57BC" stroke-opacity="1.00" stroke-width="0.3"><path d="
M 1187.00 956.00 
C 1176.86 963.61 1184.95 984.21 1183.00 997.00 C 1181.05 1009.79 1183.89 1028.12 1183.00 1042.00 C 1182.11 1055.88 1183.38 1071.61 1183.00 1086.00 C 1182.62 1100.39 1183.15 1116.42 1183.00 1131.00 C 1182.85 1145.58 1183.00 1160.40 1183.00 1175.00
C 1183.00 1175.50 1183.00 1176.00 1183.00 1176.00
C 1189.57 1175.03 1197.23 1168.15 1202.97 1164.97 C 1208.71 1161.79 1218.04 1157.91 1222.92 1153.92 C 1227.80 1149.93 1240.10 1147.02 1242.00 1142.00
C 1241.10 1114.14 1239.31 1082.76 1242.00 1055.00
C 1241.98 1046.38 1242.11 1037.60 1242.00 1029.00 C 1241.89 1020.40 1242.28 1011.54 1242.00 1003.00 C 1241.72 994.46 1242.64 985.39 1242.00 977.00 C 1241.36 968.61 1243.42 959.05 1242.00 951.00 C 1240.58 942.95 1245.15 932.30 1242.00 925.00
C 1224.58 936.15 1203.65 943.49 1187.00 956.00 Z"/>
</g>
<g fill="None" fill-opacity="0.0" stroke="#1C57BB" stroke-opacity="1.00" stroke-width="0.3"><path d="
M 845.00 936.00 
C 833.52 940.49 823.52 949.04 812.70 954.70 C 801.87 960.36 791.29 966.56 780.70 972.70 C 770.11 978.83 759.82 985.08 749.23 991.23 C 738.63 997.38 727.85 1003.24 717.25 1009.25 C 706.65 1015.25 695.78 1022.33 685.08 1028.08 C 674.38 1033.83 664.31 1041.01 653.68 1046.68 C 643.05 1052.35 632.17 1059.08 621.75 1064.75 C 611.32 1070.41 600.21 1078.69 589.75 1082.75 C 579.29 1086.81 568.63 1101.80 558.00 1097.00
C 559.02 1097.98 560.03 1099.56 560.00 1101.00
C 497.03 1135.47 435.85 1173.15 373.00 1208.00
C 369.88 1214.32 374.12 1224.74 373.00 1232.00 C 371.88 1239.26 373.04 1249.48 373.00 1257.00 C 372.96 1264.52 371.85 1273.64 373.00 1281.00 C 374.15 1288.36 370.07 1299.30 373.00 1306.00
C 382.65 1311.55 391.75 1317.32 401.31 1322.70 C 410.86 1328.07 420.56 1333.64 429.78 1339.22 C 438.99 1344.81 448.95 1349.00 457.97 1355.03 C 466.98 1361.07 477.47 1368.64 486.78 1360.78 C 496.08 1352.91 505.43 1351.84 514.92 1344.92 C 524.41 1338.00 533.96 1334.63 543.75 1328.75 C 553.54 1322.87 561.56 1317.35 570.92 1311.92 C 580.29 1306.50 590.59 1301.60 599.78 1295.78 C 608.96 1289.95 618.57 1285.37 627.92 1279.92 C 637.26 1274.47 646.80 1268.31 656.25 1263.25 C 665.71 1258.20 675.18 1251.91 684.75 1246.75 C 694.33 1241.60 703.16 1235.74 712.32 1230.32 C 721.48 1224.90 731.75 1220.08 741.25 1214.25 C 750.76 1208.43 759.45 1203.83 769.25 1198.25 C 779.04 1192.67 787.82 1186.89 797.31 1181.31 C 806.79 1175.72 815.79 1171.75 825.30 1165.30 C 834.82 1158.86 849.20 1157.06 848.00 1143.00 C 846.80 1128.94 848.00 1113.22 848.00 1099.00
C 848.00 1044.00 848.00 989.00 848.00 934.00
C 846.76 934.29 846.19 935.54 845.00 936.00 Z"/>
</g>
<g fill="None" fill-opacity="0.0" stroke="#1C57BB" stroke-opacity="0.70" stroke-width="0.3"><path d="
M 1242.00 1142.00 
C 1245.17 1133.62 1240.60 1122.02 1242.00 1113.00 C 1243.40 1103.98 1241.44 1093.22 1242.00 1084.00 C 1242.56 1074.78 1241.98 1065.25 1242.00 1056.00
C 1242.00 1056.00 1242.00 1055.50 1242.00 1055.00
C 1239.31 1082.76 1241.10 1114.14 1242.00 1142.00 Z"/>
</g>
<g fill="None" fill-opacity="0.0" stroke="#248DE8" stroke-opacity="0.70" stroke-width="0.3"><path d="
M 1372.00 1067.00 
C 1372.00 1067.00 1372.00 1066.50 1372.00 1066.00
C 1353.51 1064.33 1333.38 1067.64 1315.00 1066.00 C 1296.62 1064.36 1277.66 1069.18 1260.00 1065.00
C 1275.46 1070.99 1297.28 1066.46 1315.00 1067.00 C 1332.72 1067.54 1354.14 1068.62 1372.00 1067.00 Z"/>
</g>
<g fill="None" fill-opacity="0.0" stroke="#11499F" stroke-opacity="1.00" stroke-width="0.3"><path d="
M 373.00 1157.00 
C 365.14 1156.94 357.76 1146.42 350.23 1143.77 C 342.70 1141.12 335.27 1134.69 327.75 1131.25 C 320.22 1127.82 313.45 1122.22 306.08 1117.92 C 298.70 1113.63 289.70 1110.48 282.75 1105.25 C 275.80 1100.01 267.55 1097.27 260.25 1092.75 C 252.95 1088.24 245.79 1083.64 238.00 1080.00
C 233.82 1080.66 228.53 1087.47 224.07 1089.07 C 219.61 1090.68 212.92 1094.47 209.23 1097.23 C 205.54 1099.99 196.81 1101.81 195.00 1106.00
C 203.61 1110.70 212.25 1115.46 220.69 1120.31 C 229.14 1125.15 237.70 1129.90 246.08 1134.92 C 254.45 1139.95 262.98 1144.86 271.25 1149.75 C 279.51 1154.65 288.39 1159.65 296.75 1164.25 C 305.10 1168.86 313.60 1175.02 322.23 1178.77 C 330.86 1182.52 338.48 1191.28 347.23 1193.77 C 355.98 1196.26 364.12 1208.22 373.00 1208.00
C 435.85 1173.15 497.03 1135.47 560.00 1101.00
C 560.03 1099.56 559.02 1097.98 558.00 1097.00
C 551.56 1094.09 543.79 1088.12 537.25 1085.75 C 530.70 1083.39 523.98 1073.82 517.00 1074.00
C 510.33 1078.44 502.82 1081.73 496.23 1086.23 C 489.64 1090.73 482.42 1093.42 475.70 1097.70 C 468.97 1101.97 461.47 1105.69 454.75 1109.75 C 448.03 1113.81 441.30 1117.66 434.70 1121.70 C 428.09 1125.74 420.00 1129.78 413.25 1133.25 C 406.49 1136.71 400.15 1143.08 393.25 1145.25 C 386.34 1147.41 380.03 1157.05 373.00 1157.00 Z"/>
</g>
<g fill="None" fill-opacity="0.0" stroke="#248DE8" stroke-opacity="0.99" stroke-width="0.3"><path d="
M 373.00 1306.00 
C 370.07 1299.30 374.15 1288.36 373.00 1281.00 C 371.85 1273.64 372.96 1264.52 373.00 1257.00 C 373.04 1249.48 371.88 1239.26 373.00 1232.00 C 374.12 1224.74 369.88 1214.32 373.00 1208.00
C 364.12 1208.22 355.98 1196.26 347.23 1193.77 C 338.48 1191.28 330.86 1182.52 322.23 1178.77 C 313.60 1175.02 305.10 1168.86 296.75 1164.25 C 288.39 1159.65 279.51 1154.65 271.25 1149.75 C 262.98 1144.86 254.45 1139.95 246.08 1134.92 C 237.70 1129.90 229.14 1125.15 220.69 1120.31 C 212.25 1115.46 203.61 1110.70 195.00 1106.00
C 195.00 1138.67 195.00 1171.33 195.00 1204.00
C 254.51 1237.15 313.93 1272.02 373.00 1306.00 Z"/>
</g>
<g fill="None" fill-opacity="0.0" stroke="#238DE7" stroke-opacity="0.90" stroke-width="0.3"><path d="
M 1074.00 1176.00 
C 1091.25 1179.21 1111.43 1175.35 1129.00 1176.00 C 1146.57 1176.65 1165.51 1177.59 1183.00 1176.00
C 1183.00 1176.00 1183.00 1175.50 1183.00 1175.00
C 1165.02 1173.38 1145.91 1176.73 1128.00 1175.00 C 1110.09 1173.27 1090.95 1177.54 1074.00 1176.00 Z"/>
</g>
<g fill="#000000" fill-opacity="0.00" stroke="None">
<path d="
M 0.00 1600.00 
L 1600.00 1600.00
L 1600.00 0.00
L 0.00 0.00
L 0.00 1600.00
M 848.00 282.00 
C 848.91 292.25 847.61 302.70 848.00 313.00 C 848.38 323.30 847.88 333.68 848.00 344.00 C 848.12 354.32 848.07 364.67 848.00 375.00 C 847.93 385.33 848.29 396.77 848.00 407.00 C 847.71 417.23 848.74 428.09 848.00 438.00 C 847.26 447.91 849.67 459.68 848.00 469.00 C 846.33 478.32 852.05 492.64 847.00 500.00
C 842.42 506.67 830.24 508.00 823.75 513.75 C 817.27 519.51 807.13 521.81 800.10 527.10 C 793.07 532.39 783.28 536.29 775.78 540.78 C 768.28 545.27 760.63 550.45 752.77 554.77 C 744.91 559.09 737.19 563.39 729.25 568.25 C 721.31 573.11 712.62 577.22 705.10 582.10 C 697.58 586.98 689.12 590.85 681.32 595.32 C 673.52 599.79 666.20 604.86 658.30 609.30 C 650.41 613.74 641.90 617.99 634.25 623.25 C 626.60 628.51 617.84 631.16 610.31 636.31 C 602.77 641.45 594.53 645.03 586.97 649.97 C 579.41 654.92 569.77 658.86 563.00 664.00
C 557.75 672.06 563.64 685.20 562.00 695.00 C 560.36 704.80 562.74 717.54 562.00 728.00 C 561.26 738.46 562.33 750.26 562.00 761.00 C 561.67 771.74 562.15 783.14 562.00 794.00 C 561.85 804.86 562.07 816.11 562.00 827.00 C 561.93 837.89 562.03 849.15 562.00 860.00 C 561.97 870.85 562.00 881.20 562.00 892.00
C 570.94 890.05 578.86 883.40 587.69 878.70 C 596.53 873.99 604.97 868.84 613.74 863.74 C 622.52 858.65 630.72 854.18 639.22 849.22 C 647.73 844.26 656.45 838.98 665.22 834.22 C 673.99 829.46 681.34 838.28 690.25 842.75 C 699.15 847.23 707.69 853.00 716.00 858.00
C 714.65 853.99 718.11 845.45 717.00 840.00 C 715.89 834.55 717.19 826.69 717.00 821.00 C 716.81 815.31 715.60 807.14 719.00 803.00
C 724.47 795.15 738.10 793.45 746.08 787.08 C 754.06 780.71 765.09 776.94 773.75 770.75 C 782.40 764.55 793.24 760.95 802.03 755.03 C 810.81 749.10 820.70 744.60 829.74 738.74 C 838.79 732.89 848.55 729.17 857.70 722.70 C 866.84 716.23 876.12 711.32 886.08 718.92 C 896.04 726.52 903.44 728.39 914.00 735.00
C 911.74 729.76 914.07 718.81 914.00 713.00 C 913.93 707.19 911.92 696.36 914.00 691.00
C 916.90 683.51 931.06 682.23 936.70 676.70 C 942.34 671.17 953.37 668.60 960.25 663.25 C 967.12 657.89 976.44 654.78 984.03 650.03 C 991.61 645.27 999.06 640.90 1007.08 636.08 C 1015.11 631.26 1022.76 627.83 1030.30 622.30 C 1037.83 616.76 1046.67 615.87 1054.22 609.22 C 1061.78 602.57 1070.75 605.82 1078.25 611.75 C 1085.74 617.69 1094.15 620.09 1102.03 624.97 C 1109.90 629.86 1117.39 634.67 1124.90 639.10 C 1132.41 643.53 1141.12 647.55 1148.70 652.30 C 1156.27 657.06 1164.34 661.35 1172.22 665.78 C 1180.11 670.20 1187.50 675.22 1195.25 679.75 C 1202.99 684.29 1211.32 687.99 1219.08 692.92 C 1226.83 697.86 1234.74 701.71 1242.69 706.31 C 1250.65 710.90 1257.95 715.65 1266.03 719.97 C 1274.10 724.30 1281.47 729.64 1289.23 733.77 C 1296.99 737.90 1305.01 742.76 1312.75 747.25 C 1320.48 751.75 1328.48 755.98 1336.23 760.77 C 1343.98 765.56 1352.20 769.44 1359.70 774.31 C 1367.19 779.17 1376.18 782.93 1383.08 787.92 C 1389.98 792.91 1400.66 795.83 1406.70 801.31 C 1412.74 806.78 1427.19 808.75 1430.00 816.00
C 1433.49 825.00 1428.43 837.25 1430.00 847.00 C 1431.57 856.75 1429.29 867.89 1430.00 878.00 C 1430.71 888.11 1429.69 898.67 1430.00 909.00 C 1430.31 919.32 1429.85 930.60 1430.00 941.00 C 1430.15 951.40 1429.93 961.58 1430.00 972.00 C 1430.07 982.42 1429.97 992.52 1430.00 1003.00 C 1430.03 1013.48 1429.98 1024.47 1430.00 1035.00
C 1409.40 1043.96 1392.05 1057.28 1372.00 1067.00
C 1354.14 1068.62 1332.72 1067.54 1315.00 1067.00 C 1297.28 1066.46 1275.46 1070.99 1260.00 1065.00
C 1253.33 1063.42 1248.36 1058.27 1242.00 1056.00
C 1241.98 1065.25 1242.56 1074.78 1242.00 1084.00 C 1241.44 1093.22 1243.40 1103.98 1242.00 1113.00 C 1240.60 1122.02 1245.17 1133.62 1242.00 1142.00
C 1240.10 1147.02 1227.80 1149.93 1222.92 1153.92 C 1218.04 1157.91 1208.71 1161.79 1202.97 1164.97 C 1197.23 1168.15 1189.57 1175.03 1183.00 1176.00
C 1165.51 1177.59 1146.57 1176.65 1129.00 1176.00 C 1111.43 1175.35 1091.25 1179.21 1074.00 1176.00
C 1064.18 1174.17 1056.74 1164.48 1047.30 1160.70 C 1037.87 1156.91 1029.85 1149.81 1020.75 1145.25 C 1011.65 1140.68 1002.47 1134.61 993.92 1130.08 C 985.37 1125.55 976.05 1118.35 966.97 1115.03 C 957.89 1111.70 948.81 1098.88 939.00 1100.00
C 931.64 1100.84 924.83 1110.72 917.30 1112.30 C 909.78 1113.89 902.53 1124.87 895.00 1125.00
C 886.99 1125.14 879.73 1114.40 871.92 1112.08 C 864.11 1109.76 856.17 1101.14 848.00 1099.00
C 848.00 1113.22 846.80 1128.94 848.00 1143.00 C 849.20 1157.06 834.82 1158.86 825.30 1165.30 C 815.79 1171.75 806.79 1175.72 797.31 1181.31 C 787.82 1186.89 779.04 1192.67 769.25 1198.25 C 759.45 1203.83 750.76 1208.43 741.25 1214.25 C 731.75 1220.08 721.48 1224.90 712.32 1230.32 C 703.16 1235.74 694.33 1241.60 684.75 1246.75 C 675.18 1251.91 665.71 1258.20 656.25 1263.25 C 646.80 1268.31 637.26 1274.47 627.92 1279.92 C 618.57 1285.37 608.96 1289.95 599.78 1295.78 C 590.59 1301.60 580.29 1306.50 570.92 1311.92 C 561.56 1317.35 553.54 1322.87 543.75 1328.75 C 533.96 1334.63 524.41 1338.00 514.92 1344.92 C 505.43 1351.84 496.08 1352.91 486.78 1360.78 C 477.47 1368.64 466.98 1361.07 457.97 1355.03 C 448.95 1349.00 438.99 1344.81 429.78 1339.22 C 420.56 1333.64 410.86 1328.07 401.31 1322.70 C 391.75 1317.32 382.65 1311.55 373.00 1306.00
C 313.93 1272.02 254.51 1237.15 195.00 1204.00
C 195.00 1171.33 195.00 1138.67 195.00 1106.00
C 196.81 1101.81 205.54 1099.99 209.23 1097.23 C 212.92 1094.47 219.61 1090.68 224.07 1089.07 C 228.53 1087.47 233.82 1080.66 238.00 1080.00
C 231.26 1076.85 223.94 1072.42 217.77 1068.23 C 211.60 1064.04 202.09 1061.45 197.00 1056.00
C 189.99 1048.49 196.83 1031.78 195.00 1021.00 C 193.17 1010.22 195.80 995.75 195.00 984.00 C 194.20 972.25 195.37 958.15 195.00 946.00 C 194.63 933.85 195.16 921.35 195.00 909.00 C 194.84 896.65 195.07 883.43 195.00 871.00 C 194.93 858.57 195.02 846.47 195.00 834.00 C 194.98 821.53 195.00 808.48 195.00 796.00 C 195.00 783.52 194.96 771.48 195.00 759.00 C 195.04 746.52 194.91 733.46 195.00 721.00 C 195.09 708.54 194.79 696.42 195.00 684.00 C 195.21 671.58 194.55 658.32 195.00 646.00 C 195.45 633.68 193.97 621.07 195.00 609.00 C 196.03 596.93 192.32 582.91 196.00 572.00
C 197.69 562.19 207.53 554.22 211.11 545.11 C 214.69 536.00 222.71 527.06 226.92 517.92 C 231.13 508.78 237.76 500.42 242.25 491.25 C 246.75 482.09 253.42 473.45 258.25 464.25 C 263.07 455.05 268.70 446.72 273.75 437.75 C 278.80 428.79 284.09 419.09 289.25 410.25 C 294.42 401.42 298.37 391.32 308.23 387.23 C 318.09 383.14 325.84 375.76 335.25 371.25 C 344.66 366.73 352.41 361.09 361.75 355.75 C 371.09 350.42 380.12 346.01 389.23 340.23 C 398.34 334.45 407.03 330.60 416.08 325.08 C 425.13 319.56 434.06 314.23 443.22 309.22 C 452.38 304.22 460.60 298.86 469.74 293.74 C 478.89 288.63 488.03 283.21 497.08 278.08 C 506.14 272.95 514.53 267.70 523.75 262.75 C 532.96 257.79 541.47 251.90 550.75 246.75 C 560.03 241.60 568.11 236.76 577.25 231.25 C 586.39 225.74 595.63 221.56 604.70 215.70 C 613.77 209.84 622.37 206.66 631.10 200.10 C 639.82 193.53 650.03 192.77 659.01 185.01 C 667.99 177.25 677.53 181.30 686.25 187.75 C 694.97 194.21 705.08 197.52 713.75 203.25 C 722.41 208.99 731.54 213.49 740.25 218.75 C 748.95 224.02 758.53 229.02 767.25 234.75 C 775.96 240.49 786.23 243.54 794.08 249.92 C 801.93 256.30 814.84 258.65 821.70 265.31 C 828.55 271.96 845.08 273.92 848.00 282.00 Z"/>
</g>
<g fill="#53AEF1" fill-opacity="1.00" stroke="None">
<path d="
M 196.00 572.00 
C 195.92 572.49 196.00 573.50 196.00 574.00
C 199.13 578.59 207.30 579.59 211.70 583.30 C 216.09 587.02 223.17 588.57 228.03 591.97 C 232.88 595.38 238.89 598.95 244.08 601.92 C 249.28 604.89 254.99 607.63 260.08 610.92 C 265.16 614.22 270.67 616.74 275.75 620.25 C 280.82 623.77 287.08 626.39 292.25 629.75 C 297.41 633.12 302.90 635.76 308.08 638.92 C 313.25 642.09 319.13 644.61 324.22 647.78 C 329.31 650.95 335.32 654.63 340.23 657.77 C 345.14 660.91 352.53 662.50 356.23 666.77 C 359.93 671.04 370.69 671.32 373.00 676.00
C 375.35 665.71 385.68 657.61 389.75 647.75 C 393.83 637.89 401.08 628.00 406.31 618.31 C 411.53 608.61 417.91 598.80 422.92 588.92 C 427.94 579.04 434.84 570.75 439.77 560.77 C 444.71 550.79 451.11 541.40 456.31 531.31 C 461.50 521.21 468.67 512.72 473.32 502.32 C 477.97 491.93 489.62 488.52 499.08 483.08 C 508.53 477.63 518.25 471.12 528.08 466.08 C 537.90 461.03 547.36 454.30 557.23 449.23 C 567.10 444.16 575.57 437.76 585.25 432.25 C 594.92 426.73 605.51 421.94 615.08 416.08 C 624.64 410.21 634.18 404.57 643.75 398.75 C 653.32 392.93 663.35 388.69 672.68 382.68 C 682.01 376.67 692.26 371.53 701.75 365.75 C 711.23 359.96 721.14 354.28 730.70 348.70 C 740.25 343.12 749.89 337.71 759.68 332.68 C 769.47 327.65 778.38 319.77 788.25 315.25 C 798.11 310.72 807.80 302.32 817.70 298.70 C 827.60 295.07 836.73 282.96 847.00 282.00
C 847.50 281.95 848.00 282.00 848.00 282.00
C 845.08 273.92 828.55 271.96 821.70 265.31 C 814.84 258.65 801.93 256.30 794.08 249.92 C 786.23 243.54 775.96 240.49 767.25 234.75 C 758.53 229.02 748.95 224.02 740.25 218.75 C 731.54 213.49 722.41 208.99 713.75 203.25 C 705.08 197.52 694.97 194.21 686.25 187.75 C 677.53 181.30 667.99 177.25 659.01 185.01 C 650.03 192.77 639.82 193.53 631.10 200.10 C 622.37 206.66 613.77 209.84 604.70 215.70 C 595.63 221.56 586.39 225.74 577.25 231.25 C 568.11 236.76 560.03 241.60 550.75 246.75 C 541.47 251.90 532.96 257.79 523.75 262.75 C 514.53 267.70 506.14 272.95 497.08 278.08 C 488.03 283.21 478.89 288.63 469.74 293.74 C 460.60 298.86 452.38 304.22 443.22 309.22 C 434.06 314.23 425.13 319.56 416.08 325.08 C 407.03 330.60 398.34 334.45 389.23 340.23 C 380.12 346.01 371.09 350.42 361.75 355.75 C 352.41 361.09 344.66 366.73 335.25 371.25 C 325.84 375.76 318.09 383.14 308.23 387.23 C 298.37 391.32 294.42 401.42 289.25 410.25 C 284.09 419.09 278.80 428.79 273.75 437.75 C 268.70 446.72 263.07 455.05 258.25 464.25 C 253.42 473.45 246.75 482.09 242.25 491.25 C 237.76 500.42 231.13 508.78 226.92 517.92 C 222.71 527.06 214.69 536.00 211.11 545.11 C 207.53 554.22 197.69 562.19 196.00 572.00 Z"/>
</g>
<g fill="#1C57BB" fill-opacity="1.00" stroke="None">
<path d="
M 373.00 676.00 
C 369.15 692.83 374.73 711.67 373.00 729.00 C 371.27 746.33 373.77 764.38 373.00 782.00 C 372.23 799.62 373.35 818.26 373.00 836.00 C 372.65 853.74 373.16 871.21 373.00 889.00 C 372.84 906.79 373.07 925.18 373.00 943.00 C 372.93 960.82 373.03 978.16 373.00 996.00 C 372.97 1013.84 373.02 1032.15 373.00 1050.00 C 372.98 1067.85 373.01 1085.14 373.00 1103.00 C 372.99 1120.86 373.01 1139.10 373.00 1157.00
C 380.03 1157.05 386.34 1147.41 393.25 1145.25 C 400.15 1143.08 406.49 1136.71 413.25 1133.25 C 420.00 1129.78 428.09 1125.74 434.70 1121.70 C 441.30 1117.66 448.03 1113.81 454.75 1109.75 C 461.47 1105.69 468.97 1101.97 475.70 1097.70 C 482.42 1093.42 489.64 1090.73 496.23 1086.23 C 502.82 1081.73 510.33 1078.44 517.00 1074.00
C 523.42 1069.73 533.29 1066.07 539.22 1061.22 C 545.16 1056.38 557.38 1054.56 561.00 1048.00
C 564.27 1039.04 559.58 1027.69 561.00 1018.00 C 562.42 1008.31 560.37 997.04 561.00 987.00 C 561.63 976.96 560.72 966.20 561.00 956.00 C 561.28 945.80 560.90 935.26 561.00 925.00 C 561.10 914.74 561.00 904.28 561.00 894.00
C 561.00 882.98 560.98 872.03 561.00 861.00 C 561.02 849.97 560.95 839.05 561.00 828.00 C 561.05 816.95 560.89 804.99 561.00 794.00 C 561.11 783.01 560.76 771.81 561.00 761.00 C 561.24 750.19 560.48 737.40 561.00 727.00 C 561.52 716.60 559.82 703.42 561.00 694.00 C 562.18 684.58 557.52 668.16 563.00 664.00
C 569.77 658.86 579.41 654.92 586.97 649.97 C 594.53 645.03 602.77 641.45 610.31 636.31 C 617.84 631.16 626.60 628.51 634.25 623.25 C 641.90 617.99 650.41 613.74 658.30 609.30 C 666.20 604.86 673.52 599.79 681.32 595.32 C 689.12 590.85 697.58 586.98 705.10 582.10 C 712.62 577.22 721.31 573.11 729.25 568.25 C 737.19 563.39 744.91 559.09 752.77 554.77 C 760.63 550.45 768.28 545.27 775.78 540.78 C 783.28 536.29 793.07 532.39 800.10 527.10 C 807.13 521.81 817.27 519.51 823.75 513.75 C 830.24 508.00 842.42 506.67 847.00 500.00
C 848.28 463.78 845.30 427.18 847.00 391.00 C 848.70 354.82 843.74 318.04 847.00 282.00
C 836.73 282.96 827.60 295.07 817.70 298.70 C 807.80 302.32 798.11 310.72 788.25 315.25 C 778.38 319.77 769.47 327.65 759.68 332.68 C 749.89 337.71 740.25 343.12 730.70 348.70 C 721.14 354.28 711.23 359.96 701.75 365.75 C 692.26 371.53 682.01 376.67 672.68 382.68 C 663.35 388.69 653.32 392.93 643.75 398.75 C 634.18 404.57 624.64 410.21 615.08 416.08 C 605.51 421.94 594.92 426.73 585.25 432.25 C 575.57 437.76 567.10 444.16 557.23 449.23 C 547.36 454.30 537.90 461.03 528.08 466.08 C 518.25 471.12 508.53 477.63 499.08 483.08 C 489.62 488.52 477.97 491.93 473.32 502.32 C 468.67 512.72 461.50 521.21 456.31 531.31 C 451.11 541.40 444.71 550.79 439.77 560.77 C 434.84 570.75 427.94 579.04 422.92 588.92 C 417.91 598.80 411.53 608.61 406.31 618.31 C 401.08 628.00 393.83 637.89 389.75 647.75 C 385.68 657.61 375.35 665.71 373.00 676.00 Z"/>
</g>
<g fill="#1A55BB" fill-opacity="0.50" stroke="None">
<path d="
M 847.00 500.00 
C 852.05 492.64 846.33 478.32 848.00 469.00 C 849.67 459.68 847.26 447.91 848.00 438.00 C 848.74 428.09 847.71 417.23 848.00 407.00 C 848.29 396.77 847.93 385.33 848.00 375.00 C 848.07 364.67 848.12 354.32 848.00 344.00 C 847.88 333.68 848.38 323.30 848.00 313.00 C 847.61 302.70 848.91 292.25 848.00 282.00
C 848.00 282.00 847.50 281.95 847.00 282.00
C 843.74 318.04 848.70 354.82 847.00 391.00 C 845.30 427.18 848.28 463.78 847.00 500.00 Z"/>
</g>
<g fill="#278AEB" fill-opacity="0.10" stroke="None">
<path d="
M 197.00 1056.00 
C 191.41 1047.59 197.80 1033.28 196.00 1023.00 C 194.20 1012.72 196.84 998.94 196.00 988.00 C 195.16 977.06 196.37 965.26 196.00 954.00 C 195.63 942.74 196.17 930.39 196.00 919.00 C 195.83 907.61 196.07 896.46 196.00 885.00 C 195.93 873.54 196.03 861.48 196.00 850.00 C 195.97 838.52 196.01 827.50 196.00 816.00 C 195.99 804.50 196.01 792.50 196.00 781.00 C 195.99 769.50 196.00 758.51 196.00 747.00 C 196.00 735.49 196.00 723.51 196.00 712.00 C 196.00 700.49 196.00 689.51 196.00 678.00 C 196.00 666.49 196.00 654.52 196.00 643.00 C 196.00 631.48 196.00 620.54 196.00 609.00 C 196.00 597.46 196.00 585.57 196.00 574.00
C 196.00 573.50 195.92 572.49 196.00 572.00
C 192.32 582.91 196.03 596.93 195.00 609.00 C 193.97 621.07 195.45 633.68 195.00 646.00 C 194.55 658.32 195.21 671.58 195.00 684.00 C 194.79 696.42 195.09 708.54 195.00 721.00 C 194.91 733.46 195.04 746.52 195.00 759.00 C 194.96 771.48 195.00 783.52 195.00 796.00 C 195.00 808.48 194.98 821.53 195.00 834.00 C 195.02 846.47 194.93 858.57 195.00 871.00 C 195.07 883.43 194.84 896.65 195.00 909.00 C 195.16 921.35 194.63 933.85 195.00 946.00 C 195.37 958.15 194.20 972.25 195.00 984.00 C 195.80 995.75 193.17 1010.22 195.00 1021.00 C 196.83 1031.78 189.99 1048.49 197.00 1056.00 Z"/>
</g>
<g fill="#248DE8" fill-opacity="1.00" stroke="None">
<path d="
M 197.00 1056.00 
C 202.09 1061.45 211.60 1064.04 217.77 1068.23 C 223.94 1072.42 231.26 1076.85 238.00 1080.00
C 245.79 1083.64 252.95 1088.24 260.25 1092.75 C 267.55 1097.27 275.80 1100.01 282.75 1105.25 C 289.70 1110.48 298.70 1113.63 306.08 1117.92 C 313.45 1122.22 320.22 1127.82 327.75 1131.25 C 335.27 1134.69 342.70 1141.12 350.23 1143.77 C 357.76 1146.42 365.14 1156.94 373.00 1157.00
C 373.01 1139.10 372.99 1120.86 373.00 1103.00 C 373.01 1085.14 372.98 1067.85 373.00 1050.00 C 373.02 1032.15 372.97 1013.84 373.00 996.00 C 373.03 978.16 372.93 960.82 373.00 943.00 C 373.07 925.18 372.84 906.79 373.00 889.00 C 373.16 871.21 372.65 853.74 373.00 836.00 C 373.35 818.26 372.23 799.62 373.00 782.00 C 373.77 764.38 371.27 746.33 373.00 729.00 C 374.73 711.67 369.15 692.83 373.00 676.00
C 370.69 671.32 359.93 671.04 356.23 666.77 C 352.53 662.50 345.14 660.91 340.23 657.77 C 335.32 654.63 329.31 650.95 324.22 647.78 C 319.13 644.61 313.25 642.09 308.08 638.92 C 302.90 635.76 297.41 633.12 292.25 629.75 C 287.08 626.39 280.82 623.77 275.75 620.25 C 270.67 616.74 265.16 614.22 260.08 610.92 C 254.99 607.63 249.28 604.89 244.08 601.92 C 238.89 598.95 232.88 595.38 228.03 591.97 C 223.17 588.57 216.09 587.02 211.70 583.30 C 207.30 579.59 199.13 578.59 196.00 574.00
C 196.00 585.57 196.00 597.46 196.00 609.00 C 196.00 620.54 196.00 631.48 196.00 643.00 C 196.00 654.52 196.00 666.49 196.00 678.00 C 196.00 689.51 196.00 700.49 196.00 712.00 C 196.00 723.51 196.00 735.49 196.00 747.00 C 196.00 758.51 195.99 769.50 196.00 781.00 C 196.01 792.50 195.99 804.50 196.00 816.00 C 196.01 827.50 195.97 838.52 196.00 850.00 C 196.03 861.48 195.93 873.54 196.00 885.00 C 196.07 896.46 195.83 907.61 196.00 919.00 C 196.17 930.39 195.63 942.74 196.00 954.00 C 196.37 965.26 195.16 977.06 196.00 988.00 C 196.84 998.94 194.20 1012.72 196.00 1023.00 C 197.80 1033.28 191.41 1047.59 197.00 1056.00 Z"/>
</g>
<g fill="#53AEF1" fill-opacity="0.99" stroke="None">
<path d="
M 914.00 691.00 
C 924.17 696.72 934.41 701.74 944.22 707.78 C 954.03 713.81 964.43 719.62 974.25 725.75 C 984.06 731.88 994.84 736.84 1004.69 742.31 C 1014.55 747.77 1024.54 755.72 1034.70 760.31 C 1044.85 764.89 1054.59 773.89 1064.70 777.31 C 1074.80 780.72 1085.01 795.68 1095.00 791.00
C 1104.95 786.34 1116.48 775.35 1127.00 773.00
C 1136.53 770.87 1146.89 784.64 1156.70 788.31 C 1166.50 791.97 1176.89 800.04 1186.70 805.30 C 1196.51 810.56 1206.29 816.03 1216.23 822.77 C 1226.17 829.51 1236.60 832.37 1247.08 839.92 C 1257.55 847.48 1270.54 850.88 1285.00 849.00 C 1299.46 847.12 1317.30 850.62 1332.00 849.00 C 1346.70 847.38 1363.81 852.74 1377.00 846.00
C 1395.21 836.69 1411.83 825.24 1430.00 816.00
C 1427.19 808.75 1412.74 806.78 1406.70 801.31 C 1400.66 795.83 1389.98 792.91 1383.08 787.92 C 1376.18 782.93 1367.19 779.17 1359.70 774.31 C 1352.20 769.44 1343.98 765.56 1336.23 760.77 C 1328.48 755.98 1320.48 751.75 1312.75 747.25 C 1305.01 742.76 1296.99 737.90 1289.23 733.77 C 1281.47 729.64 1274.10 724.30 1266.03 719.97 C 1257.95 715.65 1250.65 710.90 1242.69 706.31 C 1234.74 701.71 1226.83 697.86 1219.08 692.92 C 1211.32 687.99 1202.99 684.29 1195.25 679.75 C 1187.50 675.22 1180.11 670.20 1172.22 665.78 C 1164.34 661.35 1156.27 657.06 1148.70 652.30 C 1141.12 647.55 1132.41 643.53 1124.90 639.10 C 1117.39 634.67 1109.90 629.86 1102.03 624.97 C 1094.15 620.09 1085.74 617.69 1078.25 611.75 C 1070.75 605.82 1061.78 602.57 1054.22 609.22 C 1046.67 615.87 1037.83 616.76 1030.30 622.30 C 1022.76 627.83 1015.11 631.26 1007.08 636.08 C 999.06 640.90 991.61 645.27 984.03 650.03 C 976.44 654.78 967.12 657.89 960.25 663.25 C 953.37 668.60 942.34 671.17 936.70 676.70 C 931.06 682.23 916.90 683.51 914.00 691.00 Z"/>
</g>
<g fill="#1B57BB" fill-opacity="0.69" stroke="None">
<path d="
M 561.00 894.00 
C 561.00 893.96 562.00 894.00 562.00 894.00
C 562.00 893.50 562.00 893.00 562.00 893.00
C 562.00 881.20 561.97 870.85 562.00 860.00 C 562.03 849.15 561.93 837.89 562.00 827.00 C 562.07 816.11 561.85 804.86 562.00 794.00 C 562.15 783.14 561.67 771.74 562.00 761.00 C 562.33 750.26 561.26 738.46 562.00 728.00 C 562.74 717.54 560.36 704.80 562.00 695.00 C 563.64 685.20 557.75 672.06 563.00 664.00
C 557.52 668.16 562.18 684.58 561.00 694.00 C 559.82 703.42 561.52 716.60 561.00 727.00 C 560.48 737.40 561.24 750.19 561.00 761.00 C 560.76 771.81 561.11 783.01 561.00 794.00 C 560.89 804.99 561.05 816.95 561.00 828.00 C 560.95 839.05 561.02 849.97 561.00 861.00 C 560.98 872.03 561.00 882.98 561.00 894.00 Z"/>
</g>
<g fill="#248EE8" fill-opacity="1.00" stroke="None">
<path d="
M 914.00 735.00 
C 971.78 771.14 1032.24 805.75 1092.00 838.00
C 1089.33 831.82 1092.84 819.63 1092.00 813.00 C 1091.16 806.37 1090.17 794.97 1095.00 791.00
C 1085.01 795.68 1074.80 780.72 1064.70 777.31 C 1054.59 773.89 1044.85 764.89 1034.70 760.31 C 1024.54 755.72 1014.55 747.77 1004.69 742.31 C 994.84 736.84 984.06 731.88 974.25 725.75 C 964.43 719.62 954.03 713.81 944.22 707.78 C 934.41 701.74 924.17 696.72 914.00 691.00
C 911.92 696.36 913.93 707.19 914.00 713.00 C 914.07 718.81 911.74 729.76 914.00 735.00 Z"/>
</g>
<g fill="#53AEF1" fill-opacity="1.00" stroke="None">
<path d="
M 719.00 803.00 
C 718.58 803.60 718.15 804.28 718.00 805.00
C 718.82 808.39 729.33 810.38 732.23 813.77 C 735.13 817.16 743.11 818.63 747.23 821.77 C 751.35 824.91 757.90 827.36 762.25 830.75 C 766.59 834.15 772.55 835.60 777.23 838.77 C 781.91 841.94 787.21 844.88 792.08 847.92 C 796.94 850.97 801.97 853.20 807.03 855.97 C 812.09 858.74 816.15 862.17 821.69 864.31 C 827.24 866.45 830.04 872.08 836.23 873.77 C 842.42 875.47 844.25 879.96 851.08 881.92 C 857.90 883.89 857.46 889.52 866.23 890.77 C 875.00 892.02 887.46 908.33 896.00 906.00
C 903.68 903.90 910.44 895.94 918.03 894.03 C 925.62 892.11 932.12 881.14 940.00 881.00
C 947.87 880.86 955.25 891.82 963.03 893.97 C 970.81 896.12 978.09 903.61 985.70 907.30 C 993.31 910.99 1000.57 916.49 1008.25 920.75 C 1015.93 925.02 1023.71 929.13 1031.70 933.30 C 1039.68 937.48 1046.08 943.51 1054.70 947.30 C 1063.32 951.10 1069.39 958.36 1080.00 958.00 C 1090.61 957.64 1104.82 958.52 1116.00 958.00 C 1127.18 957.48 1140.79 959.04 1152.00 958.00 C 1163.21 956.96 1177.17 961.08 1187.00 956.00
C 1203.65 943.49 1224.58 936.15 1242.00 925.00
C 1240.08 920.56 1230.13 918.55 1225.77 915.23 C 1221.41 911.90 1213.25 909.33 1208.30 905.70 C 1203.36 902.06 1196.88 898.73 1191.32 895.68 C 1185.76 892.63 1179.49 889.38 1173.92 886.08 C 1168.36 882.77 1163.10 878.73 1157.31 875.70 C 1151.51 872.66 1145.52 869.54 1139.92 866.08 C 1134.33 862.61 1128.17 859.54 1123.00 856.00
C 1113.49 849.47 1102.05 843.42 1092.00 838.00
C 1032.24 805.75 971.78 771.14 914.00 735.00
C 903.44 728.39 896.04 726.52 886.08 718.92 C 876.12 711.32 866.84 716.23 857.70 722.70 C 848.55 729.17 838.79 732.89 829.74 738.74 C 820.70 744.60 810.81 749.10 802.03 755.03 C 793.24 760.95 782.40 764.55 773.75 770.75 C 765.09 776.94 754.06 780.71 746.08 787.08 C 738.10 793.45 724.47 795.15 719.00 803.00 Z"/>
</g>
<g fill="#248EE8" fill-opacity="1.00" stroke="None">
<path d="
M 1127.00 773.00 
C 1131.14 775.42 1126.84 787.61 1128.00 793.00 C 1129.16 798.39 1127.44 808.68 1128.00 815.00 C 1128.56 821.32 1127.72 829.23 1128.00 836.00 C 1128.28 842.77 1127.79 851.09 1128.00 858.00
C 1126.11 858.06 1124.71 856.58 1123.00 856.00
C 1128.17 859.54 1134.33 862.61 1139.92 866.08 C 1145.52 869.54 1151.51 872.66 1157.31 875.70 C 1163.10 878.73 1168.36 882.77 1173.92 886.08 C 1179.49 889.38 1185.76 892.63 1191.32 895.68 C 1196.88 898.73 1203.36 902.06 1208.30 905.70 C 1213.25 909.33 1221.41 911.90 1225.77 915.23 C 1230.13 918.55 1240.08 920.56 1242.00 925.00
C 1245.15 932.30 1240.58 942.95 1242.00 951.00 C 1243.42 959.05 1241.36 968.61 1242.00 977.00 C 1242.64 985.39 1241.72 994.46 1242.00 1003.00 C 1242.28 1011.54 1241.89 1020.40 1242.00 1029.00 C 1242.11 1037.60 1241.98 1046.38 1242.00 1055.00
C 1242.00 1055.50 1242.00 1056.00 1242.00 1056.00
C 1248.36 1058.27 1253.33 1063.42 1260.00 1065.00
C 1277.66 1069.18 1296.62 1064.36 1315.00 1066.00 C 1333.38 1067.64 1353.51 1064.33 1372.00 1066.00
C 1372.00 993.66 1372.00 921.34 1372.00 849.00
C 1373.83 848.74 1376.30 847.98 1377.00 846.00
C 1363.81 852.74 1346.70 847.38 1332.00 849.00 C 1317.30 850.62 1299.46 847.12 1285.00 849.00 C 1270.54 850.88 1257.55 847.48 1247.08 839.92 C 1236.60 832.37 1226.17 829.51 1216.23 822.77 C 1206.29 816.03 1196.51 810.56 1186.70 805.30 C 1176.89 800.04 1166.50 791.97 1156.70 788.31 C 1146.89 784.64 1136.53 770.87 1127.00 773.00 Z"/>
</g>
<g fill="#1C58BB" fill-opacity="1.00" stroke="None">
<path d="
M 1095.00 791.00 
C 1090.17 794.97 1091.16 806.37 1092.00 813.00 C 1092.84 819.63 1089.33 831.82 1092.00 838.00
C 1102.05 843.42 1113.49 849.47 1123.00 856.00
C 1124.71 856.58 1126.11 858.06 1128.00 858.00
C 1127.79 851.09 1128.28 842.77 1128.00 836.00 C 1127.72 829.23 1128.56 821.32 1128.00 815.00 C 1127.44 808.68 1129.16 798.39 1128.00 793.00 C 1126.84 787.61 1131.14 775.42 1127.00 773.00
C 1116.48 775.35 1104.95 786.34 1095.00 791.00 Z"/>
</g>
<g fill="#268EE7" fill-opacity="0.51" stroke="None">
<path d="
M 716.00 858.00 
C 717.28 858.77 716.68 857.52 718.00 858.00
C 720.58 853.65 716.74 846.20 718.00 841.00 C 719.26 835.80 717.09 828.53 718.00 823.00 C 718.91 817.47 716.82 810.54 718.00 805.00
C 718.15 804.28 718.58 803.60 719.00 803.00
C 715.60 807.14 716.81 815.31 717.00 821.00 C 717.19 826.69 715.89 834.55 717.00 840.00 C 718.11 845.45 714.65 853.99 716.00 858.00 Z"/>
</g>
<g fill="#248EE8" fill-opacity="1.00" stroke="None">
<path d="
M 718.00 858.00 
C 725.78 860.82 733.40 870.18 742.23 873.77 C 751.06 877.36 760.24 883.34 768.70 888.31 C 777.15 893.28 785.61 897.85 794.08 902.92 C 802.55 907.99 811.46 913.08 820.08 917.92 C 828.70 922.77 837.12 928.74 846.00 933.00
C 846.53 934.28 845.03 934.86 845.00 936.00
C 846.19 935.54 846.76 934.29 848.00 934.00
C 848.00 989.00 848.00 1044.00 848.00 1099.00
C 856.17 1101.14 864.11 1109.76 871.92 1112.08 C 879.73 1114.40 886.99 1125.14 895.00 1125.00
C 895.03 1114.64 894.96 1104.37 895.00 1094.00 C 895.04 1083.63 894.93 1073.41 895.00 1063.00 C 895.07 1052.59 894.85 1041.38 895.00 1031.00 C 895.16 1020.62 894.65 1010.27 895.00 1000.00 C 895.35 989.73 894.25 978.01 895.00 968.00 C 895.75 957.99 893.28 946.39 895.00 937.00 C 896.72 927.61 890.82 913.78 896.00 906.00
C 887.46 908.33 875.00 892.02 866.23 890.77 C 857.46 889.52 857.90 883.89 851.08 881.92 C 844.25 879.96 842.42 875.47 836.23 873.77 C 830.04 872.08 827.24 866.45 821.69 864.31 C 816.15 862.17 812.09 858.74 807.03 855.97 C 801.97 853.20 796.94 850.97 792.08 847.92 C 787.21 844.88 781.91 841.94 777.23 838.77 C 772.55 835.60 766.59 834.15 762.25 830.75 C 757.90 827.36 751.35 824.91 747.23 821.77 C 743.11 818.63 735.13 817.16 732.23 813.77 C 729.33 810.38 718.82 808.39 718.00 805.00
C 716.82 810.54 718.91 817.47 718.00 823.00 C 717.09 828.53 719.26 835.80 718.00 841.00 C 716.74 846.20 720.58 853.65 718.00 858.00 Z"/>
</g>
<g fill="#1C57BC" fill-opacity="1.00" stroke="None">
<path d="
M 1377.00 846.00 
C 1376.30 847.98 1373.83 848.74 1372.00 849.00
C 1372.00 921.34 1372.00 993.66 1372.00 1066.00
C 1372.00 1066.50 1372.00 1067.00 1372.00 1067.00
C 1392.05 1057.28 1409.40 1043.96 1430.00 1035.00
C 1429.98 1024.47 1430.03 1013.48 1430.00 1003.00 C 1429.97 992.52 1430.07 982.42 1430.00 972.00 C 1429.93 961.58 1430.15 951.40 1430.00 941.00 C 1429.85 930.60 1430.31 919.32 1430.00 909.00 C 1429.69 898.67 1430.71 888.11 1430.00 878.00 C 1429.29 867.89 1431.57 856.75 1430.00 847.00 C 1428.43 837.25 1433.49 825.00 1430.00 816.00
C 1411.83 825.24 1395.21 836.69 1377.00 846.00 Z"/>
</g>
<g fill="#53AEF1" fill-opacity="1.00" stroke="None">
<path d="
M 562.00 893.00 
C 562.00 893.00 562.00 893.50 562.00 894.00
C 562.00 906.62 562.31 919.40 562.00 932.00 C 561.69 944.60 562.79 958.56 562.00 971.00 C 561.21 983.44 563.81 998.10 562.00 1010.00 C 560.19 1021.90 566.49 1038.04 561.00 1048.00
C 557.38 1054.56 545.16 1056.38 539.22 1061.22 C 533.29 1066.07 523.42 1069.73 517.00 1074.00
C 523.98 1073.82 530.70 1083.39 537.25 1085.75 C 543.79 1088.12 551.56 1094.09 558.00 1097.00
C 568.63 1101.80 579.29 1086.81 589.75 1082.75 C 600.21 1078.69 611.32 1070.41 621.75 1064.75 C 632.17 1059.08 643.05 1052.35 653.68 1046.68 C 664.31 1041.01 674.38 1033.83 685.08 1028.08 C 695.78 1022.33 706.65 1015.25 717.25 1009.25 C 727.85 1003.24 738.63 997.38 749.23 991.23 C 759.82 985.08 770.11 978.83 780.70 972.70 C 791.29 966.56 801.87 960.36 812.70 954.70 C 823.52 949.04 833.52 940.49 845.00 936.00
C 845.03 934.86 846.53 934.28 846.00 933.00
C 837.12 928.74 828.70 922.77 820.08 917.92 C 811.46 913.08 802.55 907.99 794.08 902.92 C 785.61 897.85 777.15 893.28 768.70 888.31 C 760.24 883.34 751.06 877.36 742.23 873.77 C 733.40 870.18 725.78 860.82 718.00 858.00
C 716.68 857.52 717.28 858.77 716.00 858.00
C 707.69 853.00 699.15 847.23 690.25 842.75 C 681.34 838.28 673.99 829.46 665.22 834.22 C 656.45 838.98 647.73 844.26 639.22 849.22 C 630.72 854.18 622.52 858.65 613.74 863.74 C 604.97 868.84 596.53 873.99 587.69 878.70 C 578.86 883.40 570.94 890.05 562.00 893.00 Z"/>
</g>
<g fill="#1C58BB" fill-opacity="1.00" stroke="None">
<path d="
M 896.00 906.00 
C 890.82 913.78 896.72 927.61 895.00 937.00 C 893.28 946.39 895.75 957.99 895.00 968.00 C 894.25 978.01 895.35 989.73 895.00 1000.00 C 894.65 1010.27 895.16 1020.62 895.00 1031.00 C 894.85 1041.38 895.07 1052.59 895.00 1063.00 C 894.93 1073.41 895.04 1083.63 895.00 1094.00 C 894.96 1104.37 895.03 1114.64 895.00 1125.00
C 902.53 1124.87 909.78 1113.89 917.30 1112.30 C 924.83 1110.72 931.64 1100.84 939.00 1100.00
C 944.28 1092.60 938.29 1079.20 940.00 1070.00 C 941.71 1060.80 939.25 1048.93 940.00 1039.00 C 940.75 1029.07 939.65 1017.24 940.00 1007.00 C 940.35 996.76 939.85 986.40 940.00 976.00 C 940.15 965.60 939.93 954.46 940.00 944.00 C 940.07 933.54 939.96 923.51 940.00 913.00 C 940.04 902.49 939.97 891.55 940.00 881.00
C 932.12 881.14 925.62 892.11 918.03 894.03 C 910.44 895.94 903.68 903.90 896.00 906.00 Z"/>
</g>
<g fill="#248EE8" fill-opacity="1.00" stroke="None">
<path d="
M 939.00 1100.00 
C 948.81 1098.88 957.89 1111.70 966.97 1115.03 C 976.05 1118.35 985.37 1125.55 993.92 1130.08 C 1002.47 1134.61 1011.65 1140.68 1020.75 1145.25 C 1029.85 1149.81 1037.87 1156.91 1047.30 1160.70 C 1056.74 1164.48 1064.18 1174.17 1074.00 1176.00
C 1090.95 1177.54 1110.09 1173.27 1128.00 1175.00 C 1145.91 1176.73 1165.02 1173.38 1183.00 1175.00
C 1183.00 1160.40 1182.85 1145.58 1183.00 1131.00 C 1183.15 1116.42 1182.62 1100.39 1183.00 1086.00 C 1183.38 1071.61 1182.11 1055.88 1183.00 1042.00 C 1183.89 1028.12 1181.05 1009.79 1183.00 997.00 C 1184.95 984.21 1176.86 963.61 1187.00 956.00
C 1177.17 961.08 1163.21 956.96 1152.00 958.00 C 1140.79 959.04 1127.18 957.48 1116.00 958.00 C 1104.82 958.52 1090.61 957.64 1080.00 958.00 C 1069.39 958.36 1063.32 951.10 1054.70 947.30 C 1046.08 943.51 1039.68 937.48 1031.70 933.30 C 1023.71 929.13 1015.93 925.02 1008.25 920.75 C 1000.57 916.49 993.31 910.99 985.70 907.30 C 978.09 903.61 970.81 896.12 963.03 893.97 C 955.25 891.82 947.87 880.86 940.00 881.00
C 939.97 891.55 940.04 902.49 940.00 913.00 C 939.96 923.51 940.07 933.54 940.00 944.00 C 939.93 954.46 940.15 965.60 940.00 976.00 C 939.85 986.40 940.35 996.76 940.00 1007.00 C 939.65 1017.24 940.75 1029.07 940.00 1039.00 C 939.25 1048.93 941.71 1060.80 940.00 1070.00 C 938.29 1079.20 944.28 1092.60 939.00 1100.00 Z"/>
</g>
<g fill="#2C71CC" fill-opacity="1.00" stroke="None">
<path d="
M 561.00 1048.00 
C 566.49 1038.04 560.19 1021.90 562.00 1010.00 C 563.81 998.10 561.21 983.44 562.00 971.00 C 562.79 958.56 561.69 944.60 562.00 932.00 C 562.31 919.40 562.00 906.62 562.00 894.00
C 562.00 894.00 561.00 893.96 561.00 894.00
C 561.00 904.28 561.10 914.74 561.00 925.00 C 560.90 935.26 561.28 945.80 561.00 956.00 C 560.72 966.20 561.63 976.96 561.00 987.00 C 560.37 997.04 562.42 1008.31 561.00 1018.00 C 559.58 1027.69 564.27 1039.04 561.00 1048.00 Z"/>
</g>
<g fill="#1C57BC" fill-opacity="1.00" stroke="None">
<path d="
M 1187.00 956.00 
C 1176.86 963.61 1184.95 984.21 1183.00 997.00 C 1181.05 1009.79 1183.89 1028.12 1183.00 1042.00 C 1182.11 1055.88 1183.38 1071.61 1183.00 1086.00 C 1182.62 1100.39 1183.15 1116.42 1183.00 1131.00 C 1182.85 1145.58 1183.00 1160.40 1183.00 1175.00
C 1183.00 1175.50 1183.00 1176.00 1183.00 1176.00
C 1189.57 1175.03 1197.23 1168.15 1202.97 1164.97 C 1208.71 1161.79 1218.04 1157.91 1222.92 1153.92 C 1227.80 1149.93 1240.10 1147.02 1242.00 1142.00
C 1241.10 1114.14 1239.31 1082.76 1242.00 1055.00
C 1241.98 1046.38 1242.11 1037.60 1242.00 1029.00 C 1241.89 1020.40 1242.28 1011.54 1242.00 1003.00 C 1241.72 994.46 1242.64 985.39 1242.00 977.00 C 1241.36 968.61 1243.42 959.05 1242.00 951.00 C 1240.58 942.95 1245.15 932.30 1242.00 925.00
C 1224.58 936.15 1203.65 943.49 1187.00 956.00 Z"/>
</g>
<g fill="#1C57BB" fill-opacity="1.00" stroke="None">
<path d="
M 845.00 936.00 
C 833.52 940.49 823.52 949.04 812.70 954.70 C 801.87 960.36 791.29 966.56 780.70 972.70 C 770.11 978.83 759.82 985.08 749.23 991.23 C 738.63 997.38 727.85 1003.24 717.25 1009.25 C 706.65 1015.25 695.78 1022.33 685.08 1028.08 C 674.38 1033.83 664.31 1041.01 653.68 1046.68 C 643.05 1052.35 632.17 1059.08 621.75 1064.75 C 611.32 1070.41 600.21 1078.69 589.75 1082.75 C 579.29 1086.81 568.63 1101.80 558.00 1097.00
C 559.02 1097.98 560.03 1099.56 560.00 1101.00
C 497.03 1135.47 435.85 1173.15 373.00 1208.00
C 369.88 1214.32 374.12 1224.74 373.00 1232.00 C 371.88 1239.26 373.04 1249.48 373.00 1257.00 C 372.96 1264.52 371.85 1273.64 373.00 1281.00 C 374.15 1288.36 370.07 1299.30 373.00 1306.00
C 382.65 1311.55 391.75 1317.32 401.31 1322.70 C 410.86 1328.07 420.56 1333.64 429.78 1339.22 C 438.99 1344.81 448.95 1349.00 457.97 1355.03 C 466.98 1361.07 477.47 1368.64 486.78 1360.78 C 496.08 1352.91 505.43 1351.84 514.92 1344.92 C 524.41 1338.00 533.96 1334.63 543.75 1328.75 C 553.54 1322.87 561.56 1317.35 570.92 1311.92 C 580.29 1306.50 590.59 1301.60 599.78 1295.78 C 608.96 1289.95 618.57 1285.37 627.92 1279.92 C 637.26 1274.47 646.80 1268.31 656.25 1263.25 C 665.71 1258.20 675.18 1251.91 684.75 1246.75 C 694.33 1241.60 703.16 1235.74 712.32 1230.32 C 721.48 1224.90 731.75 1220.08 741.25 1214.25 C 750.76 1208.43 759.45 1203.83 769.25 1198.25 C 779.04 1192.67 787.82 1186.89 797.31 1181.31 C 806.79 1175.72 815.79 1171.75 825.30 1165.30 C 834.82 1158.86 849.20 1157.06 848.00 1143.00 C 846.80 1128.94 848.00 1113.22 848.00 1099.00
C 848.00 1044.00 848.00 989.00 848.00 934.00
C 846.76 934.29 846.19 935.54 845.00 936.00 Z"/>
</g>
<g fill="#1C57BB" fill-opacity="0.70" stroke="None">
<path d="
M 1242.00 1142.00 
C 1245.17 1133.62 1240.60 1122.02 1242.00 1113.00 C 1243.40 1103.98 1241.44 1093.22 1242.00 1084.00 C 1242.56 1074.78 1241.98 1065.25 1242.00 1056.00
C 1242.00 1056.00 1242.00 1055.50 1242.00 1055.00
C 1239.31 1082.76 1241.10 1114.14 1242.00 1142.00 Z"/>
</g>
<g fill="#248DE8" fill-opacity="0.70" stroke="None">
<path d="
M 1372.00 1067.00 
C 1372.00 1067.00 1372.00 1066.50 1372.00 1066.00
C 1353.51 1064.33 1333.38 1067.64 1315.00 1066.00 C 1296.62 1064.36 1277.66 1069.18 1260.00 1065.00
C 1275.46 1070.99 1297.28 1066.46 1315.00 1067.00 C 1332.72 1067.54 1354.14 1068.62 1372.00 1067.00 Z"/>
</g>
<g fill="#11499F" fill-opacity="1.00" stroke="None">
<path d="
M 373.00 1157.00 
C 365.14 1156.94 357.76 1146.42 350.23 1143.77 C 342.70 1141.12 335.27 1134.69 327.75 1131.25 C 320.22 1127.82 313.45 1122.22 306.08 1117.92 C 298.70 1113.63 289.70 1110.48 282.75 1105.25 C 275.80 1100.01 267.55 1097.27 260.25 1092.75 C 252.95 1088.24 245.79 1083.64 238.00 1080.00
C 233.82 1080.66 228.53 1087.47 224.07 1089.07 C 219.61 1090.68 212.92 1094.47 209.23 1097.23 C 205.54 1099.99 196.81 1101.81 195.00 1106.00
C 203.61 1110.70 212.25 1115.46 220.69 1120.31 C 229.14 1125.15 237.70 1129.90 246.08 1134.92 C 254.45 1139.95 262.98 1144.86 271.25 1149.75 C 279.51 1154.65 288.39 1159.65 296.75 1164.25 C 305.10 1168.86 313.60 1175.02 322.23 1178.77 C 330.86 1182.52 338.48 1191.28 347.23 1193.77 C 355.98 1196.26 364.12 1208.22 373.00 1208.00
C 435.85 1173.15 497.03 1135.47 560.00 1101.00
C 560.03 1099.56 559.02 1097.98 558.00 1097.00
C 551.56 1094.09 543.79 1088.12 537.25 1085.75 C 530.70 1083.39 523.98 1073.82 517.00 1074.00
C 510.33 1078.44 502.82 1081.73 496.23 1086.23 C 489.64 1090.73 482.42 1093.42 475.70 1097.70 C 468.97 1101.97 461.47 1105.69 454.75 1109.75 C 448.03 1113.81 441.30 1117.66 434.70 1121.70 C 428.09 1125.74 420.00 1129.78 413.25 1133.25 C 406.49 1136.71 400.15 1143.08 393.25 1145.25 C 386.34 1147.41 380.03 1157.05 373.00 1157.00 Z"/>
</g>
<g fill="#248DE8" fill-opacity="0.99" stroke="None">
<path d="
M 373.00 1306.00 
C 370.07 1299.30 374.15 1288.36 373.00 1281.00 C 371.85 1273.64 372.96 1264.52 373.00 1257.00 C 373.04 1249.48 371.88 1239.26 373.00 1232.00 C 374.12 1224.74 369.88 1214.32 373.00 1208.00
C 364.12 1208.22 355.98 1196.26 347.23 1193.77 C 338.48 1191.28 330.86 1182.52 322.23 1178.77 C 313.60 1175.02 305.10 1168.86 296.75 1164.25 C 288.39 1159.65 279.51 1154.65 271.25 1149.75 C 262.98 1144.86 254.45 1139.95 246.08 1134.92 C 237.70 1129.90 229.14 1125.15 220.69 1120.31 C 212.25 1115.46 203.61 1110.70 195.00 1106.00
C 195.00 1138.67 195.00 1171.33 195.00 1204.00
C 254.51 1237.15 313.93 1272.02 373.00 1306.00 Z"/>
</g>
<g fill="#238DE7" fill-opacity="0.90" stroke="None">
<path d="
M 1074.00 1176.00 
C 1091.25 1179.21 1111.43 1175.35 1129.00 1176.00 C 1146.57 1176.65 1165.51 1177.59 1183.00 1176.00
C 1183.00 1176.00 1183.00 1175.50 1183.00 1175.00
C 1165.02 1173.38 1145.91 1176.73 1128.00 1175.00 C 1110.09 1173.27 1090.95 1177.54 1074.00 1176.00 Z"/>
</g>
</svg>